<mxfile host="app.diagrams.net" agent="Mozilla/5.0 (Windows NT 10.0; Win64; x64; rv:135.0) Gecko/20100101 Firefox/135.0" version="26.0.11">
  <diagram name="Page-1" id="zTPn07t1WINwRmUJm4ir">
    <mxGraphModel dx="2954" dy="1134" grid="1" gridSize="10" guides="1" tooltips="1" connect="1" arrows="1" fold="1" page="1" pageScale="1" pageWidth="850" pageHeight="1100" math="0" shadow="0">
      <root>
        <mxCell id="0" />
        <mxCell id="1" parent="0" />
        <mxCell id="dr0Qi1gEtvZ0eQ3jCMXv-3" value="" style="shape=image;verticalLabelPosition=bottom;labelBackgroundColor=default;verticalAlign=top;aspect=fixed;imageAspect=0;image=data:image/png,iVBORw0KGgoAAAANSUhEUgAABJgAAAKTCAYAAABVQ7JJAAAgAElEQVR4XuzdB5gVRdr28ZscB0RyHvIgKFlFBFRAECQoplXXnBOia8LMqrC6yKoruuYcMaEisipBxQAIKmEAyTmJDENOb1ezMy8gA2dmuvt0df/7uvhU5nTVU7+n95XvtrpOAUm7nV9cCCCAAAIIIIAAAggggAACCCCAAAII5EmgwG7nytOd3IQAAggggAACCCCAAAIIIIAAAggggIAjQMDEY4AAAggggAACCCCAAAIIIIAAAgggkC8BAqZ88XEzAggggAACCCCAAAIIIIAAAggggAABE88AAggggAACCCCAAAIIIIAAAggggEC+BAiY8sXHzXkRePXVV7V48WINGDAg+/bBgwdr2bJlevzxx3Mccs2aNXruued05ZVXqly5cvvcu2jRIg0bNiwv5XAPAggggAACCCCAAAIIIIAAAgjkU4CAKZ+A3J57gZ9//lnNmzfXQw89pDvuuEMvvfSSLrvsMs2ePVt169Y96IDVqlXTjTfeqFtvvdX93NKlS1WjRg2NGzdOHTp0yH0x3IEAAggggAACCCCAAAIIIIAAAvkWIGDKNyED5EXgrrvu0oMPPqhp06apadOmGjRokG6//fZDDtW/f3+NHDlSs2bNcj/7xBNPuLue5syZc8h7+QACCCCAAAIIIIAAAggggAACCPgjQMDkjyujJiBQvXp1ZWRkqGHDhpo8eXICd0jff/+92rZtm71j6YgjjlDv3r3dgIoLAQQQQAABBBBAAAEEEEAAAQSSI0DAlBx3ZnUELrnkEr344ovu63HPPvtswibNmjVT7dq13d1LqampmjRpklq1apXw/XwQAQQQQAABBBBAAAEEEEAAAQS8FSBg8taT0RIUGD16tLp27eqewWR2H33zzTdq165dQnebz5sDwvv166exY8dq6tSpCd3HhxBAAAEEEEAAAQQQQAABBBBAwB8BAiZ/XBn1EAItWrRQz549NXDgQHXu3Fnbtm3T+PHj3buuv/56LV++XMOHDz/gKPPnz88+DNzcf/fdd+ONAAIIIIAAAggggAACCCCAAAJJFCBgSiJ+XKcePHiwXn75Zc2cOdMlSE9Pd79V7tFHH9U111yjvn37atWqVfr6669zJOrSpYu++OILzZgxQ40bN44rJetGAAEEEEAAAQQQQAABBBBAIBQCBEyhaANFZAmYQ7+rVq2qoUOH6oorrsgR5qyzznJ3OR0shEIVAQQQQAABBBBAAAEEEEAAAQSCESBgCsaZWRIUuPfee91vivv8889zvCMzM1MpKSkaNmyYrr766gRH5mMIIIAAAggggAACCCCAAAIIIOCXAAGTX7KMmyeBESNGqEePHipUqFCO97/wwgsaMmSIJkyYoLJly+ZpHm5CAAEEEEAAAQQQQAABBBBAAAHvBAiYvLNkJAQQQAABBBBAAAEEEEAAAQQQQCCWAgRMsWw7i0YAAQQQQAABBBBAAAEEEEAAAQS8EyBg8s4ykiMVKFAgkutiUQggYI/A7t277SmWShFAAAEEEEAAAQQQiKkAAVNMG5/osk3AVNI5D6lKieKJ3sLnEEAAAU8EVmzeok07d4qAyRNOBkEAAQQQQAABBBBAwFcBAiZfee0f3ARMdUuX0tw+PexfDCtAAAGrBOp9+KnmZW4kYLKqaxSLAAIIIIAAAgggEFcBAqa4dj7BdRMwJQjFxxBAwHMBAibPSRkQAQQQQAABBBBAAAHfBAiYfKONxsAETNHoI6tAwEYBAiYbu0bNCCCAAAIIIIAAAnEVIGCKa+cTXDcBU4JQfAwBBDwXIGDynJQBEUAAAQQQQAABBBDwTYCAyTfaaAxMwBSNPrIKBGwUIGCysWvUjAACCCCAAAIIIBBXAQKmuHY+wXUTMCUIxccQQMBzAQImz0kZEAEEEEAAAQQQQAAB3wQImHyjjcbABEzR6COrQMBGAQImG7tGzQgggAACCCCAAAJxFSBgimvnE1w3AVOCUHwMAQQ8FyBg8pyUARFAAAEEEEAAAQQQ8E2AgMk32mgMTMAUjT6yCgRsFCBgsrFr1IwAAggggAACCCAQVwECprh2PsF1EzAlCMXHEEDAcwECJs9JGRABBBBAAAEEEEAAAd8ECJh8o43GwGELmOZtyNSYlav03eq1Ss/I0PzMjcrYvkObd+5UiUKFVLZIEaWWLqm0MmXUtmJ5nVi5kuqmlI5GM1gFAjETIGCKWcNZLgIIIIAAAggggIDVAgRMVrfP/+LDEDD9sW2bXpw7X6/OW6gp6/7Ys+giJaUyVXIGyFghbd/k/rxFucN0fp3aurheHZUrVtR/NGZAAAFPBAiYPGFkEAQQQAABBBBAAAEEAhEgYAqE2d5Jkhkwbdi+XQ9PT9cTs37TeufvTahUpuHRqtvpPP3esJcWqVKOsLW0SuXnfKK5X7yqjNk/umFTmSKFdV2jBrq9SZpSnJ1OXAggEG4BAqZw94fqEEAAAQQQQAABBBDYW4CAiefhoALJCpjeX7REN0ycoqU7Crg7lZr0vlJLWt+g9buK57pjZQtuUY1Jj2v6R/+RnJ1N1Qvv1uNtWuj0WjVyPRY3IIBAcAIETMFZMxMCCCCAAAIIIIAAAvkVIGDKr2DE7w86YNrinKV08+SpGjZ7rrtjqc4592j+Mbd5plznh39o/lsD3R1N1zSsp0dbNVcx5+wmLgQQCJ8AAVP4ekJFCCCAAAIIIIAAAgjkJEDAxLNxUIEgAyZz1lKfsd9q3LqNKlatkSrd8rkWq6LnHaqp1Vr1SFdtXTZLHcuV0ocntNNhRTmbyXNoBkQgnwIETPkE5HYEEEAAAQQQQAABBAIUIGAKENvGqYIKmEy4dOJ/x2pq5jZVOO4MrTnzZd+5Kg6/WKu/fUfNSxfVmC4nEDL5Ls4ECOROgIApd158GgEEEEAAAQQQQACBZAoQMCVT34K5gwiYzGtx3b4c7+5cqtrlUi3v/nhgMtU/v1lLRz2t9uVKanSnjirO63KB2TMRAocSIGA6lBA/RwABBBBAAAEEEEAgPAIETOHpRSgrCSJguvbHyRo2f3lgO5f2h87ayXRValU9dUyrUPaBohCIowABUxy7zpoRQAABBBBAAAEEbBUgYLK1cwHV7XfAZL4tru/4CSpWu4W23vJTQKv68zTFHmmprQun6L0Ox/HtcknrAhMjsK8AARNPBAIIIIAAAggggAAC9ggQMNnTq6RU6mfAtGH7djUeMUpLdxRQzaELfDnQO1E0c/D34v6pql54t2b26qaUIkUSvZXPIYCATwIETD7BMiwCCCCAAAIIIIAAAj4IEDD5gBqlIf0MmO6e+qsemLVQdc65R/OPuS3pbHUnDtG8N+7RXY1q6+/Nj0x6PRSAQNwFCJji/gSwfgQQQAABBBBAAAGbBAiYbOpWEmr1K2Ay3xqX+sGnWl+mpnT/3CSsLIcp762nshmLteC0HnyrXHi6QiUxFSBgimnjWTYCCCCAAAIIIICAlQIETFa2Lbii/QqYhs6cpZsm/6wml/xD01veGtyCDjFTkymPaPrzt+rRVs3Uv3Gj0NRFIQjEUYCAKY5dZ80IIIAAAggggAACtgoQMNnauYDq9itgavnpaE3J3Kayj63V+l3FA1rNoacpW3CL1vcrrxali+qnHicf+gY+gQACvgkQMPlGy8AIIIAAAggggAACCHguQMDkOWm0BvQjYJq3IVP1PhqpMk1OUMbVY0IHVuapE5Uxfazm9u6uuimlQ1cfBSEQFwECprh0mnUigAACCCCAAAIIREGAgCkKXfRxDX4ETM//Nk+XfT9JzW94VlMbXuZj9Xkbuvns5zT18cv13LGtdWn9unkbhLsQQCDfAgRM+SZkAAQQQAABBBBAAAEEAhMgYAqM2s6J/AiYLvtuop5ftFK1hs7XIlUKHUwtrdKi/nV0aa3Keq5tm9DVR0EIxEWAgCkunWadCCCAAAIIIIAAAlEQIGCKQhd9XIMfAdPxn3+pb3eVDde3x+1v6HybXLuC6/VN104+6jI0AggcTICAiecDAQQQQAABBBBAAAF7BAiY7OlVUir1I2Cq/t4ILStZLfQBU/VNy7Wkb8+kuDMpAghIBEw8BQgggAACCCCAAAII2CNAwGRPr5JSqR8BU8pb7yuzbK3QB0yl1y/ShnNOT4o7kyKAAAETzwACCCCAAAIIIIAAAjYJEDDZ1K0k1OpHwFT49Xe18/A6oQ+YCv0+XzvOOzMJ6kyJAAJGgB1MPAcIIIAAAggggAACCNgjQMBkT6+SUqkfARM7mJLSSiZFwDoBAibrWkbBCCCAAAIIIIAAAjEWIGCKcfMTWbofARNnMCUiz2cQQICAiWcAAQQQQAABBBBAAAF7BAiY7OlVUir1I2DiW+SS0komRcA6AQIm61pGwQgggAACCCCAAAIxFiBginHzE1m6HwHTZd9N1POLVqrW0PlapEqJlBHoZ2pplRb1r6NLa1XWc23bBDo3kyGAwP8LEDDxNCCAAAIIIIAAAgggYI8AAZM9vUpKpX4ETM//Nk+XfT9JLfo9rykNLknKug42aYs5L2jKY5fquWNb69L6dUNXHwUhEBcBAqa4dJp1IoAAAggggAACCERBgIApCl30cQ1+BEzzNmSq3kcjVabJCcq4eoyP1edt6DJPnaiM6WM1t3d31U0pnbdBuAsBBPItQMCUb0IGQAABBBBAAAEEEEAgMAECpsCo7ZzIj4DJSLT8dLSmZG5T2cfWav2u4qHBKVtwi9b3K68WpYvqpx4nh6YuCkEgjgIETHHsOmtGAAEEEEAAAQQQsFWAgMnWzgVUt18B06MzZunmn35Wk0v+oektbw1oNYeepsmURzT9+Vs1pGUz3XREo0PfwCcQQMA3AQIm32gZGAEEEEAAAQQQQAABzwUImDwnjdaAfgVM67ZuU+qHnyijTC3p/rnhQbu3nspkLNKCPqeqXLGi4amLShCIoQABUwybzpIRQAABBBBAAAEErBUgYLK2dcEU7lfAZKq/c+qvemjWQtU55x7NP+a2YBZ0kFnqThyieW/cowGNauvB5kcmvR4KQCDuAgRMcX8CWD8CCCCAAAIIIICATQIETDZ1Kwm1+hkwbdi+XY1HjNLSHQVUc+gCLVbFJKxwz5Q1tVqL+6eqeuHdmtmrm1KKFElaLUyMAAJ7BAiYeBIQQAABBBBAAAEEELBHgIDJnl4lpVI/AyazoPcXLVHf8RNUrHYLbb3lp6Ss0Uxa7JGW2rpwit7rcJxOr1UjaXUwMQII/L8AARNPAwIIIIAAAggggAAC9ggQMNnTq6RU6nfAZBZ17Y+TNWz+clVsd5ZWn/Fi4OusOPxirf72HV2VWlVPHdMq8PmZEAEEDixAwMSTgQACCCCAAAIIIICAPQIETPb0KimVBhEwbdm5U92+HK9x6zaqerertLTrkMDWWv2/t2jpyGFqX66kRnfqqOKFCgU2NxMhgMDBBQiYeEIQQAABBBBAAAEEELBHgIDJnl4lpdIgAiazsD+2bdMJo8fo543bA9vJlLVzqVmpIhp78ok6rCjfGpeUh4xJEchBgICJRwMBBBBAAAEEEEAAAXsECJjs6VVSKg0qYMoKmXqN/UZfr9ukYtUaqdItn/ty8Lc50HvVI121ddksd+fSiBOOJ1xKytPFpAgcXICAiScEAQQQQAABBBBAAAF7BAiY7OlVUioNMmAyCzSvy/WfNFVPz5krFSmpuucO1Lw2N3u29roTh2jeG/dI2zfpqgb1NLR1c16L80yXgRDwVoCAyVtPRkMAAQQQQAABBBBAwE8BAiY/dSMwdtABUxbZe863y/WbOEVLdxSQylRRkz5XaUmr67V+V/Fcq5YtuEU1Jj+h6R8+LWWsUPXCu/V4mxZ8W1yuJbkBgWAFCJiC9WY2BBBAAAEEEEAAAQTyI0DAlB+9GNybrIDJ0G7Yvl0PT0/XE7N+03rn782OpjINj1bdTufp94a9tEiVcuxALa1S+TmfaO4Xrypj9o/ujqUyRQrrukYNdHuTNKUUKRKD7rFEBOwWIGCyu39UjwACCCCAAAIIIBAvAQKmePU716tNZsCUVaw5APzFufP16ryFmrLujz2/7YRNZmdTjpezU8mESuZqUe4wnV+nti6uV0flinGQd64fAm5AIEkCBExJgmdaBBBAAAEEEEAAAQTyIEDAlAe0ON0ShoBpb+95GzI1ZuUqfbd6rdIzMjQ/c6Mytu/QZufsphKFCqmsszMptXRJpZUpo7YVy+vEypVUN6V0nFrGWhGIjAABU2RayUIQQAABBBBAAAEEYiBAwBSDJudniWELmPKzFu5FAAG7BAiY7OoX1SKAAAIIIIAAAgjEW4CAKd79P+TqCZgOScQHEEDAJwECJp9gGRYBBBBAAAEEEEAAAR8ECJh8QI3SkARMUeoma0HALgECJrv6RbUIIIAAAggggAAC8RYgYIp3/w+5egKmQxLxAQQQ8EmAgMknWIZFAAEEEEAAAQQQQMAHAQImH1CjNCQBU5S6yVoQsEuAgMmuflEtAggggAACCCCAQLwFCJji3f9Drp6A6ZBEfAABBHwSIGDyCZZhEUAAAQQQQAABBBDwQYCAyQfUKA1JwBSlbrIWBOwSIGCyq19UiwACCCCAAAIIIBBvAQKmePf/kKsnYDokER9AAAGfBAiYfIJlWAQQQAABBBBAAAEEfBAgYPIBNUpDEjBFqZusBQG7BAiY7OoX1SKAAAIIIIAAAgjEW4CAKd79P+TqCZgOScQHEEDAJwECJp9gGRYBBBBAAAEEEEAAAR8ECJh8QI3SkARMUeoma0HALgECJrv6RbUIIIAAAggggAAC8RYgYIp3/w+5egKmQxLxAQQQ8EmAgMknWIZFAAEEEEAAAQQQQMAHAQImH1CjNCQBU5S6yVoQsEuAgMmuflEtAggggAACCCCAQLwFCJji3f9Drp6A6ZBEfAABBHwSIGDyCZZhEUAAAQQQQAABBBDwQYCAyQfUKA1JwBSlbrIWBOwSIGCyq19UiwACCCCAAAIIIBBvAQKmePf/kKsnYDokER9AAAGfBAiYfIJlWAQQQAABXwTMn5u5EEDAe4Hdu3d7Pygj+iJAwOQLa3QGJWCKTi9ZCQK2CRAw2dYx6kUAAQTiLUDAFO/+s3r/BAiY/LP1emQCJq9FIzYeAVPEGspyELBIgIDJomZRKgIIIICAsgKm3eefhQYCCHggUOC1d9xRCJg8wAxoCAKmgKBtnYaAydbOUTcC9gsQMNnfQ1aAAAIIxEmAgClO3WatQQgQMAWh7O0cBEzeekZuNAKmyLWUBSFgjQABkzWtolAEEEAAAUeAgInHAAFvBQiYvPUMYjQCpiCULZ6DgMni5lE6ApYLEDBZ3kDKRwABBGImQMAUs4azXN8FCJh8J/Z8AgImz0mjNSABU7T6yWoQsEmAgMmmblErAggggAABE88AAt4KEDB56xnEaARMQShbPAcBk8XNo3QELBcgYLK8gZSPAAIIxEyAgClmDWe5vgsQMPlO7PkEBEyek0ZrQAKmaPWT1SBgkwABk03dolYEEEAAAQImngEEvBUgYPLWM4jRCJiCULZ4DgImi5tH6QhYLkDAZHkDKR8BBBCImQABU8waznJ9FyBg8p3Y8wkImDwnjdaABEzR6ierQcAmAQImm7pFrQgggAACBEw8Awh4K0DA5K1nEKMRMAWhbPEcBEwWN4/SEbBcgIDJ8gZSPgIIIBAzAQKmmDWc5fouQMDkO7HnExAweU4arQEJmKLVT1aDgE0CBEw2dYtaEUAAAQQImHgGEPBWgIDJW88gRiNgCkLZ4jkImCxuHqUjYLkAAZPlDaR8BBBAIGYCBEwxazjL9V2AgMl3Ys8nIGDynDRaAxIwRaufrAYBmwQImGzqFrUigAACCBAw8Qwg4K0AAZO3nkGMRsAUhLLFcxAwWdw8SkfAcgECJssbSPkIIIBAzAQImGLWcJbruwABk+/Enk9AwOQ5abQGJGCKVj9ZDQI2CRAw2dQtakUAAQQQIGDiGUDAWwECJm89gxiNgCkIZYvnIGCyuHmUjoDlAgRMljeQ8hFAAIGYCRAwxazhLNd3AQIm34k9n4CAyXPSaA1IwBStfrIaBGwSIGCyqVvUigACCCBAwMQzgIC3AgRM3noGMRoBUxDKFs9BwGRx8ygdAcsFCJgsbyDlI4AAAjETIGCKWcNZru8CBEy+E3s+AQGT56TRGpCAKVr9ZDUI2CRAwGRTt6gVAQQQQICAiWcAAW8FCJi89QxiNAKmIJQtnoOAyeLmUToClgsQMFneQMpHAAEEYiZAwBSzhrNc3wUImHwn9nwCAibPSaM1IAFTtPrJahCwSYCAyaZuUSsCCCCAAAETzwAC3goQMHnrGcRoBExBKFs8BwGTxc2jdAQsFyBgsryBlI8AAgjETICAKWYNZ7m+CxAw+U7s+QQETJ6TRmtAAqZo9ZPVIGCTAAGTTd2iVgQQQAABAiaeAQS8FSBg8tYziNEImIJQtngOAiaLm0fpCFguQMBkeQMpHwEEEIiZAAFTzBrOcn0XIGDyndjzCQiYPCeN1oAETNHqJ6tBwCYBAiabukWtCCCAAAIETDwDCHgrQMDkrWcQoxEwBaFs8RwETBY3j9IRsFyAgMnyBlI+AgggEDMBAqaYNZzl+i5AwOQ7secTEDB5ThqtAQmYotVPVoOATQIETDZ1i1oRQAABBAiYeAYQ8FaAgMlbzyBGI2AKQtniOQiYLG4epSNguQABk+UNpHwEEEAgZgIETDFrOMv1XYCAyXdizycgYPKcNFoDEjBFq5+sBgGbBAiYbOoWtSKAAAIIEDDxDCDgrQABk7eeQYxGwBSEssVzEDBZ3DxKR8ByAQImyxtI+QgggEDMBAiYYtZwluu7AAGT78SeT0DA5DlptAYkYIpWP1kNAjYJEDDZ1C1qRQABBBAgYOIZQMBbAQImbz2DGI2AKQhli+cgYLK4eZQeWoFX5y3Q4o2bNODII7JrHDxtppZt3qzH27TMse41W7bqud/m6coG9VSuWNF97l3kjDfsmFahXXNeCiNgyosa9yCAAAIIJEuAgClZ8swbVQECJvs6S8BkX88CrZiAKVBuJouJwM/r/lDzT0froeZH6o6mjfXS3Pm67PtJmt3rFNVNKX1QhWrvjdCNaQ11a5M093NLN21Sjfc/0bguJ6pD5YqREiRgilQ7WQwCCCAQeQECpsi3mAUGLEDAFDC4B9MRMHmAGOUhCJii3F3WlkyBu6b+qgedXUvTTu2qpp98rkFO2HS7EzYd6uo/aYpGLl2uWb27ux99In2OHnd+zemz55+jdBEwRambrAUBBBCIvgABU/R7zAqDFSBgCtbbi9kImLxQjPAYBEwRbi5LS7pAdWc3Usb2HWpYprQmdz85oXq+X71WbT//MnvH0hEjPlPvmtU1qMVRCd1v04cImGzqFrUigAACCBAw8Qwg4K0AAZO3nkGMRsAUhLLFcxAwWdw8Sg+9wCUTftSLznlMl9Wvo2ePbZNwvc2cHU+1S5XUE855TakffqpJp3RWq/KHJ3y/LR8kYLKlU9SJAAIIIGAECJh4DhDwVoCAyVvPIEYjYApC2eI5CJgsbh6lh1pg9LIV6vrVeN3hnKU0aHq6vjn5JLWrVCGhmgc5r9YNcF6x65fWQGNXrNJU5zW7KF4ETFHsKmtCAAEEoitAwBTd3rKy5AgQMCXHPT+zEjDlRy8G9xIwxaDJLDEpAi2cQ7571qimgc2aqvMXY7Vt1y6Nd0Imc13/409a7nyj3PCO7Q5Y2/zMTNX9cKT7s4FHNdHdzq8oXgRMUewqa0IAAQSiK0DAFN3esrLkCBAwJcc9P7MSMOVHLwb3EjDFoMksMXCBwc4OpJedV+NmOt8aZ6709Rnut8o92qq5rmlUX33HfatVW7bq6657AqcDXV2cUOoLZ/fSjJ7d1LhsmcDXEMSEBExBKDMHAggggIBXAgRMXkkyDgJ7BAiY7HsSCJjs61mgFRMwBcrNZAgoY9t2VXUO/x7aurmuaFAvR5Gzxk9wdjltOWgIZTsnAZPtHaR+BBBAIF4CBEzx6jer9V+AgMl/Y69nIGDyWjRi4xEwRayhLCf0Avf+PE3fr1mrzzt1zLHWzO3blfL2Bxp2dEtd3bB+6NeU1wIJmPIqx30IIIAAAskQIGBKhjpzRlmAgMm+7hIw2dezQCsmYAqUm8kQ0IjFS9WjelUVKlgwR40XfpunITNna4LzCl3ZokUjq0bAFNnWsjAEEEAgkgIETJFsK4tKogABUxLx8zg1AVMe4eJyGwFTXDrNOhEInwABU/h6QkUIIIAAAjkLEDDxdCDgrQABk7eeQYxGwBSEssVzEDBZ3DxKR8ByAQImyxtI+QgggEDMBAiYYtZwluu7AAGT78SeT0DA5DlptAYkYIpWP1kNAjYJEDDZ1C1qRQABBBAgYOIZQMBbAQImbz2DGI2AKQhli+cgYLK4eZSOgOUCBEyWN5DyEUAAgZgJEDDFrOEs13cBAibfiT2fgIDJc9JoDUjAFK1+shoEbBIgYLKpW9SKAAIIIEDAxDOAgLcCBEzeegYxGgFTEMoWz0HAZHHzKB0BywUImCxvIOUjgAACMRMgYIpZw1mu7wIETL4Tez4BAZPnpNEakIApWv1kNQjYJEDAZFO3qBUBBBBAgICJZwABbwUImLz1DGI0AqYglC2eg4DJ4uZROgKWCxAwWd5AykcAAQRiJkDAFLOGs1zfBQiYfCf2fAICJs9JozUgAVO0+slqkiuwe/duzVyfoS9XrNKktb9rVsYGLdy4SZk7dmjzzp0qUaiQUooUVu1SJdWoTBm1Ll9OnapUVlqZFGX9oTW5Kwh2dgKmYL2ZDQEEEEAgfwIETPnz424E9hcgYLLvmSBgsq9ngVZMwBQoN5NFVGBB5ka9MHe+Xp+/UPOcv3evIiWlMlVyXnHGCmn7JvfndUuX0nl1auuiuqmqm1I6okp/XhYBU2xazUIRQNu9QLIAACAASURBVACBSAgQMEWijSwiRAIETCFqRoKlEDAlCBXXjxEwxbXzrNsLgbkbMjXwl+l6Y8Ei7Shcwg2UytdprNonnKPVqd20WBVynKam1qjiglFaOPYtrZ0/U3ICp8I7NusvqbV0z1FHqH5KihclhnoMAqZQt4fiEEAAAQT2EyBg4pFAwFsBAiZvPYMYjYApCGWL5yBgsrh5lJ40gS3O626Dps3Uw9PTtaVQcRWumKr6Fw9RetVuea4pbcVo/fZCf+1YvUDFdm7RrU3SNKBpYxV3XquL6kXAFNXOsi4EEEAgmgIETNHsK6tKngABU/Ls8zozAVNe5WJyHwFTTBrNMj0TmOOcq3TW199pauY26bBqanzNfzSz4kmejZ+2ZpxmDbtcu9ctVfPSRfVO+7Zq4JzRFMWLgCmKXWVNCCCAQHQFCJii21tWlhwBAqbkuOdnVgKm/OjF4F4Cphg0mSV6JvDl8pU6ffy3ylBRVel0kVac+qRnY+8/ULWR/bTsv8+pjLbpvQ7t1LlqZd/mStbABEzJkmdeBBBAAIG8CBAw5UWNexDIWYCAyb6ng4DJvp4FWjEBU6DcTGaxwIeLl+ocZ+fSVueVuEb9XtGs1L6+r6bR4o8069FzVdR5Ze6N449V31o1fJ8zyAkImILUZi4EEEAAgfwKEDDlV5D7EdhXgIDJvieCgMm+ngVaMQFToNxMZqmA2bnUY8zXe8Kl+8ZoVtmjA1tJow2TNeueDm7I9OmJ7SO1k4mAKbDHiIkQQAABBDwQIGDyAJEhENhLgIDJvseBgMm+ngVaMQFToNxMZqGAOXOp9Wf/dV+LCzpcyuLKCpnM63KTTukSmTOZCJgs/B8EJSOAAAIxFiBginHzWbovAgRMvrD6OigBk6+89g9OwGR/D1mBfwLm2+LajvrSPdA7qNficlpN1uty5uDv77p1isS3yxEw+ffsMjICCCCAgPcCBEzemzJivAUImOzrPwGTfT0LtGICpkC5mcwygXt/nqaB6Qt8P9A7UZYqn16nFV+8qHvSUnV/s6aJ3hbazxEwhbY1FIYAAgggcAABAiYeCwS8FSBg8tYziNEImIJQtngOAiaLm0fpvgrM3ZCpph+P0pbydaV75/g6V64Gv7+Biv0+X9NP7ap6KaVzdWvYPkzAFLaOUA8CCCCAwMEECJh4PhDwVoCAyVvPIEYjYApC2eI5CJgsbh6l+ypw4bc/6JUlq9V4wMeaWfEkX+fKzeCNV32pmYN66YIaFfVyu2Nyc2voPkvAFLqWUBACCCCAwEEECJh4PBDwVoCAyVvPIEYjYApC2eI5CJgsbh6l+yawIHOjGnw0UqraWDsGTPdtnrwOXPihJtLymZrTu7tSS5fK6zBJv4+AKektoAAEEEAAgVwIEDDlAouPIpCAAAFTAkgh+wgBU8gaErZyCJjC1hHqCYPAPc7ZS393zl5Ku/U9pVftFoaS9qkhbfkopT/c1/qzmAiYQvdoURACCCCAwEEECJh4PBDwVoCAyVvPIEYjYApC2eI5CJgsbh6l+yKwe/du1Xd2L80rVlm6f64vc3gy6L31VHfrSv3m7GLK+gOvJ+MGOAgBU4DYTIUAAgggkG8BAqZ8EzIAAvsIEDDZ90AQMNnXs0ArJmAKlJvJLBCY8cd6Nfnkc5Vv3UNrL/oktBWXf+lUrZ30qWb07KbGZcuEts6DFUbAZGXbKBoBBBCIrQABU2xbz8J9EiBg8gnWx2EJmHzEjcLQBExR6CJr8FLgifQ5umHSFLX826v6KfV8L4f2dKyWC17TT//8q55o00LXNWrg6dhBDUbAFJQ08yCAAAIIeCFAwOSFImMg8P8CBEz2PQ0ETPb1LNCKCZgC5WYyCwSyvj2u5tCFWqwKoa24plZrcf9UXVizkl467ujQ1nmwwgiYrGwbRSOAAAKxFSBgim3rWbhPAgRMPsH6OCwBk4+4URiagCkKXWQNXgoc+9kX+kGHhfv8pawFO+cwHVvgD33XrbOXBIGNRcAUGDUTIYAAAgh4IEDA5AEiQyCwlwABk32PAwGTfT0LtGICpkC5mcwCgarDR2hFqWrWBExVNy3Tsr69LJD9c4kETFa2jaIRQACB2AoQMMW29SzcJwECJp9gfRyWgMlH3CgMTcAUhS6yBi8FUt56X5lla1kTMJVev0gbzjndS4LAxiJgCoyaiRBAAAEEPBAgYPIAkSEQ2EuAgMm+x4GAyb6eBVoxAVOg3ExmgUCh197RrvJ1rQmYCv0+XzvOO9MC2T+XSMBkZdsoGgEEEIitAAFTbFvPwn0SIGDyCdbHYQmYfMSNwtAETFHoImvwUoAdTF5qHnwsAqbgrJkJAQQQQCD/AgRM+TdkBAT2FiBgsu95IGCyr2eBVkzAFCg3k1kgwBlMwTWJgCk4a2ZCAAEEEMi/AAFT/g0ZAQECJrufAQImu/vne/UETL4TM4FlAnyLXHANI2AKzpqZEEAAAQTyL0DAlH9DRkCAgMnuZ4CAye7++V49AZPvxExgmcCF3/6gV5asVs2hC7VYFUJbfU2t0eL+tXVhzUp66bijQ1vnwQojYLKybRSNAAIIxFaAgCm2rWfhPgnwipxPsD4OS8DkI24UhiZgikIXWYOXAk+kz9ENk6ao5d9e1U+p53s5tKdjtVzwmn7651/1RJsWuq5RA0/HDmowAqagpJkHAQQQQMALAQImLxQZA4H/FyBgsu9pIGCyr2eBVkzAFCg3k1kgMOOP9Wryyecq37qH1l70SWgrLv/SqVo76VPN6NlNjcuWCW2dByuMgMnKtlE0AgggEFsBAqbYtp6F+yRAwOQTrI/DEjD5iBuFoQmYotBF1uClwO7du1X/o5GaV6yydP9cL4f2dqx766nu1pX6rXd3Zf2B19sJ/B+NgMl/Y2ZAAAEEEPBOgIDJO0tGQsAIEDDZ9xwQMNnXs0ArJmAKlJvJLBG45+dp+nv6AqXd/oHSK58cuqrTVoxW+j9O091pqRrYrGno6ku0IAKmRKX4HAIIIIBAGAQImMLQBWqIkgABk33dJGCyr2eBVkzAFCg3k1kiMG9DphqN+Eyq2lg7BkwPXdWFH2oiLZ+pWb1OUd2U0qGrL9GCCJgSleJzCCCAAAJhECBgCkMXqCFKAgRM9nWTgMm+ngVaMQFToNxMZpHABc63yb3qfJtc2p0jlV6hY2gqT1szTukPdtdfa1TUK+2OCU1deSmEgCkvatyDAAIIIJAsAQKmZMkzb1QFCJjs6ywBk309C7RiAqZAuZnMIoHfNmxQ048/17YK9bT7ntmhqbzAwIYqumaupvXsqvopKaGpKy+FEDDlRY17EEAAAQSSJUDAlCx55o2qAAGTfZ0lYLKvZ4FWTMAUKDeTWSaQdRZTtS6XaVn3x5JefbWR/bTsv89Zf/ZSFiQBU9IfKQpAAAEEEMiFAAFTLrD4KAIJCBAwJYAUso8QMIWsIWErh4ApbB2hnjAJbNm5U21HfampmdvU6KY3NKtm76SVl7b0E6X/82w1L11U33XrpOKFCiWtFq8mJmDySpJxEEAAAQSCECBgCkKZOeIkQMBkX7cJmOzrWaAVEzAFys1kFgrMydig1p/9VxkqqkYDx2tWSqvAV9Fo48+adddxStF2TT6lsxqUsfvVuCxAAqbAHyUmRAABBBDIhwABUz7wuBWBAwgQMNn3WBAw2dezQCsmYAqUm8ksFfhi+Ur1GPO1thUqHnjIlBUuFd25RZ+ceLy6VK1iqeKfyyZgikwrWQgCCCAQCwECpli0mUUGKEDAFCC2R1MRMHkEGdVhCJii2lnW5bXAe4uW6Nxvvt8TMgX0ulzWa3EmXHrN+ca4M2vX9HpZSR2PgCmp/EyOAAIIIJBLAQKmXILxcQQOIUDAZN8jQsBkX88CrZiAKVBuJrNcwOxk6jv+W/d1uSqdL9aKHv/2bUVZB3qb1+Le69A2UjuXstAImHx7fBgYAQQQQMAHAQImH1AZMtYCBEz2tZ+Ayb6eBVoxAVOg3EwWAQFzJtNZX3/nHvytw6qp8TX/0cyKJ3m2srQ14zRr2OXavW6pe6D3O+3bRubMpf2RCJg8e2wYCAEEEEAgAAECpgCQmSJWAgRM9rWbgMm+ngVaMQFToNxMFhEB8+1yg6bN1D9mzNLWgsVUuGKq6l88ROlVu+V5hWkrRuu3F/prx+oFKua8EndrkzQNaNo4Et8WlxMKAVOeHxduRAABBBBIggABUxLQmTLSAgRM9rWXgMm+ngVaMQFToNxMFjGBuRsyNfCX6XpjwSLtKFxCKlNF5es0Vu0TztHq1G5arAo5rrim1qjiglFaOPYtrZ0/U8pYocI7NusvqbV0z1FHqH5KNL4p7mAtJ2CK2P8gWA4CCCAQcQECpog3mOUFLkDAFDh5vickYMo3YbQHIGCKdn9ZXTACCzI36oW58/X6/IWa5/y9exUp6QZOOV5OoKTtm9wf1y1dSufVqa2L6qaqbkrpYIoOwSwETCFoAiUggAACCCQsQMCUMBUfRCAhAQKmhJhC9SECplC1I3zFEDCFrydUZK/A7t27NXN9hr5csUqT1v6uWc55TQs3blLmjh3a7LxWV6JQIaUUKazapUqqUZkyal2+nDpVqay0MinK+kOrvavPfeUETLk34w4EEEAAgeQJEDAlz56ZoylAwGRfXwmY7OtZoBUTMAXKzWQIILCXAAETjwMCCCCAgE0CBEw2dYtabRAgYLKhS/vWSMBkX88CrZiAKVBuJkMAAQImngEEEEAAAUsFCJgsbRxlh1aAgCm0rcmxMAIm+3oWaMUETIFyMxkCCBAw8QwggAACCFgqQMBkaeMoO7QCBEyhbQ0Bk32tCUfFBEzh6ANVIBBHAV6Ri2PXWTMCCCBgrwABk729o/JwChAwhbMvB6uKHUz29SzQigmYAuVmMgQQ2EuAgInHAQEEEEDAJgECJpu6Ra02CBAw2dClfWskYLKvZ75VvGvXLk2ePFlffvmlJk2apNmzZ+vXX3915ytWsKD77VZVS5RQQ+dr0luXP1wnVank/rVggQK+1cTACCAQXwECpvj2npUjgAACNgoQMNnYNWoOswABU5i7c+DaCJjs65nnFS9dulTDhg3Ta6+9pkWLFu0Zv0hJqUyVA8+VsULavsn9Wc2SJfTXuqm6pmE9VS/p3MOFAAIIeCRAwOQRJMMggAACCAQiQMAUCDOTxEiAgMm+ZhMw2dczzyr+/fffdc899+i5557T1l2F3ECpyhFtVPPE87Sgyolavav0AeeqWDBTqSvGaMnYN7V8+g+SEzgV27lFl9Wvq4HNmujwYsU8q5GBEEAgvgIETPHtPStHAAEEbBQgYLKxa9QcZgECpjB358C1ETDZ1zNPKn733Xd17bXXavUfG1WwfE01uOhhzarRK09jpy35WLNfukW71i5WhYI79O82LXV2aq08jcVNCCCAQJYAARPPAgIIIICATQIETDZ1i1ptECBgsqFL+9ZIwGRfz/JV8Y4dO3TjjTfqySefdF+Da3DpUM1pekW+xsy6ucG0ZzTn+f7u63PXNqyvf7VursLO2U1cCCCAQF4ECJjyosY9CCCAAALJEiBgSpY880ZVgIDJvs4SMPncs1dffVWLFy/WgAEDsmcaPHiwli1bpscffzzH2desWeO+unbllVeqXLly+9xrzkkyZybl9tq8ebPOPPNMfTp6jIpVa6SKt/xXS1Q+t8Mc9PM1tFarH+mirctmqUelsnq3fVuVKFzY0zkYDAEE4iFAwBSPPrNKBBBAICoCBExR6STrCIsAAVNYOpF4HQRMiVvl6ZM///yzmjdvroceekh33HGHXnrpJV122WXuN7TVrVv3oGNWq1bN3W106623up8zh3HXqFFD48aNU4cOHXJVj9m51KdPHzdcKtOsizIu+jBX9+f2w2VfPk3rp452Q6YPOrZTEXYy5ZaQzyMQewECptg/AgAggAACVgkQMFnVLoq1QICAyYIm7VciAVMAPbvrrrv04IMPatq0aWratKkGDRqk22+//ZAz9+/fXyNHjtSsWbPczz7xxBPurqc5c+Yc8t79P3DdddfpyWdeDCRcypo7K2S6KrWqnjqmVa5r5gYEEIi3AAFTvPvP6hFAAAHbBAiYbOsY9YZdgIAp7B36c30ETAH1rHr16srIyFDDhg01efLkhGb9/vvv1bZt2+wdS0cccYR69+7tBlS5ucyB3meddZaK1W6hrbf8lJtb8/3ZYo+01NaFU/SO86rcmbVr5ns8BkAAgfgIEDDFp9esFAEEEIiCAAFTFLrIGsIkQMAUpm4kVgsBU2JO+f7UJZdcohdffNF9Pe7ZZ59NeLxmzZqpdu3a7u6l1NRUTZo0Sa1aJb4b6Pfff1daWpr7bXE1hi7y/MylQy3EnMm0pH8tVSy4UzN7dVP5YsUOdQs/RwABBFwBAiYeBAQQQAABmwQImGzqFrXaIEDAZEOX9q2RgCmAno0ePVpdu3Z1z2Ayu4+++eYbtWvXLqGZzefNAeH9+vXT2LFjNXXq1ITuy/pQ1qtxXn5bXK4KcD6c9e1yvCqXWzk+j0C8BQiY4t1/Vo8AAgjYJkDAZFvHqDfsAgRMYe/Qn+sjYAqgZy1atFDPnj01cOBAde7cWdu2bdP48ePdma+//notX75cw4cPP2Al8+fPzz4M3Nx/9913J1yxORS8Xr162l4uVbvuSk/4Pj8+WPCBNBVeNUfz+nRX9ZIl/ZiCMRFAIGICBEwRayjLQQABBCIuQMAU8QazvMAFCJgCJ8/3hARM+SY8+ACDBw/Wyy+/rJkzZ7ofTE9Pd79V7tFHH9U111yjvn37atWqVfr6669zHKhLly764osvNGPGDDVu3Djhiu+880499Mi/1OjmNzWrRq+E7/Pjg2nLRir9kTM1oFFtPdj8SD+mYEwEEIiYAAFTxBrKchBAAIGICxAwRbzBLC9wAQKmwMnzPSEBU74J8z6AOfS7atWqGjp0qK644oocBzIHdJtdTgcLofa/edeuXapTp44WbSws3T8370V6eee99VRr8wrNP62HChYo4OXIjIUAAhEUIGCKYFNZEgIIIBBhAQKmCDeXpSVFgIApKez5mpSAKV98+bv53nvvlfmmuM8//zzHgTIzM5WSkqJhw4bp6quvTnjCiRMn6uijj1aV9mdrxdlvJXyfnx+s8vY5WvH12/qxW2e1qXC4n1MxNgIIRECAgCkCTWQJCCCAQIwECJhi1GyWGogAAVMgzJ5OQsDkKWfuBhsxYoR69OihQoUK5XjjCy+8oCFDhmjChAkqW7ZswhOYV/PMoeJt7hmhiZV6Jnyfnx9ss+pjTRzYS4OcV+Rub5r4q35+1sTYCCAQXgECpvD2hsoQQAABBP4sQMDEU4GAtwIETN56BjEaAVMQykmY44wzztB7Iz5TxcdWavWu0kmo4M9TViyYqdX9KqtvlXIa3jGxb9ELReEUgQACSREgYEoKO5MigAACCORRgIApj3DchkAOAgRM9j0aBEz29Syhio866ij9umxjeM5fyqraOYfpyJ1r9cupXRNaBx9CAIH4ChAwxbf3rBwBBBCwUYCAycauUXOYBQiYwtydA9dGwGRfzxKquGLFilqzu0woA6YKmUu0+sw+Ca2DDyGAQHwFCJji23tWjgACCNgoQMBkY9eoOcwCBExh7g4Bk33dyUfFxYsX19bS1UMZMBVbt0Bbzj0jH6vjVgQQiIMAAVMcuswaEUAAgegIEDBFp5esJBwCBEzh6ENuqmAHU260LPosAZNFzaJUBBA4oAABEw8GAggggIBNAgRMNnWLWm0QIGCyoUv71kjAZF/PEqqYV+QSYuJDCCAQYgECphA3h9IQQAABBP4kQMDEQ4GAtwIETN56BjEaAVMQykmYg0O+k4DOlAgg4KkAAZOnnAyGAAIIIOCzAAGTz8AMHzsBAib7Wk7AZF/PEqr4jDPO0HsjPlPFx1Zq9a7SCd3j94cqFszU6n6V1bdKOQ3v2M7v6RgfAQQsFyBgsryBlI8AAgjETICAKWYNZ7m+CxAw+U7s+QQETJ6ThmPAwYMH64477lCbe0ZoYqWeoSiqzaqPNXFgLw1qfqRub9o4FDVRBAIIhFeAgCm8vaEyBBBAAIE/CxAw8VQg4K0AAZO3nkGMRsAUhHIS5vjxxx91zDHHqGqHv2j5WW8koYI/T1n1nXO1fPyb+qFbJx1doXwoaqIIBBAIrwABU3h7Q2UIIIAAAgRMPAMI+C1AwOS3sPfjRyJgWrduncqVK+e9jqUj7tixQxs3btSRRx6pxZuKSPfPDcdK7q2nmpuXa8Fpp6pggQLhqIkqEEAgtAIETKFtDYUhgAACCBxAgB1MPBYIeCtAwOStZxCjJTVg+uSTT9S/f3+NHTtW1atXz9N6+/btqxIlSui1117L0/1RvOnRRx/VsGHDdPbZZ+uhR/6ltL+9rfTqpyZ1qWnLP1P6w2doQKPaetB5RY4LAQQQOJQAAdOhhPg5AggggECYBAiYwtQNaomCAAGTfV1MesDUs2dPLVmyJE8B0+LFi1WrVi19/PHHOvXU5AYoXrTehGTnn39+vodatmyZ6zl69GgZ3+3lUrXrrvR8j5ufAQo+kKbCq+ZoXp/uql6yZH6G4l4EEIiJAAFTTBrNMhFAAIGICBAwRaSRLCM0AgRMoWlFwoVYHTA99thjeuSRR9yAyvZr2rRp7itt8+fPV2pqar6X06tXLzVr1kzm9cEnn3lRDS4dqjlNr8j3uHkZoMG0ZzTn+f66KrWqnjqmVV6G4B4EEIihAAFTDJvOkhFAAAGLBQiYLG4epYdSgIAplG05aFEJB0wPP/ywunTp4gYWX3zxhSpWrKhrrrlGxYoV22eCd955Rz/99JPKli2r9u3b6/jjj9/n5y+//LJmzpypBg0aqEKFCurTp88+O5jM+UGvvvqqpk6dqkaNGrlz5HR17txZTZo0kQma9r5efPFFd44aNWq4O5vq1q3r/nj37t1644033PoqV66srl27uiFM1jVo0CD3m9fee+89jRs3zg18Lr/88uyfH3vssTruuON04YUXyrzeV6hQIf3lL39R7dq195n/o48+0oQJE1S+fHmdfvrpql+//j4//89//qMZM2a4tZvX2Ey49Morr+iZZ55x569SpYpuuOGG7Hvef/99t2Zj3bp1a51yyinZP3vooYd0zjnnyBzqbX7dfvvtqlSpkq699lr31cPx48crLS1Na9ZvUo2hi7REwR6uXUNrtaR/LVUouEPpvU5R+f2eF/v+J0PFCCAQlAABU1DSzIMAAggg4IUAAZMXioyBwP8LEDDZ9zQkHDC1atVKpUqV0pw5c9SwYUPNnj3bDYh+/fVXd9UrVqxQ9+7d3fOQTjjhBPfnw4cP10svveQGMua66qqrZMIVExr9/PPPWrRokcxrblmvyM2dO9d9pevEE090Q5L77rvPHWvMmDEHlDUh18033+yGKlnXaaedpkmTJrnBzYgRI1SwYEGlp6e7dZqw548//nCDozJlysgEQZ9++qlbd0ZGhhuKnXzyyVqzZo1MmGTOMTI1P/XUU+7w5513nhtcTZkyxQ2ATIhkajZrMDbmMmGPud+EWyY4Ml4TJ050zczVtm1b7dq1y3Uy95h/EZlaTYj04YcfyoRmpjYTxBUvXlwnnXSSW3O3bt3ced566y3985//dNdtrjp16rhjm5+Z2kyAZkKvL7/80r1n+/btevvtt926itVuoa23/BToU1rskZbaunCK3jr+WJ2dWivQuZkMAQTsFiBgsrt/VI8AAgjETYCAKW4dZ71+CxAw+S3s/fi5CpjMjh0T2pgdNuZ8H7MDyOysadGihW655RaNGjUqO3AypV5xxRX6/vvv9csvv+i3335zdy2ZHTdml465TPBkdu5kBUwmADKhkQmhzPXdd9+5O4Y+++wzNyzZ+8oKhPYOsMzOpUsuucS9zwRE5jKhjdklddFFF7nzmN1XWVfv3r3db1szv5c13sUXX6wXXnjB/YgJuIYOHar169e7/2wCJhN2GQOzk2jevHmqV69edqhjAql//OMfWrhwYfYcJiQyY5qQasCAAe4upVWrVrnB1971TZ482R1z7/OozFhmfhPeZV133nmnzDrNOUvmMgFTSedMo2+++Wafb9KbPn26mjZt6gZcZgfVdddd574qV7b5yVp/4QfeP0kHGPGwV/rqjymjdGVqFT19TOtA5mQSBBCIjgABU3R6yUoQQACBOAgQMMWhy6wxSAECpiC1vZkrVwGTCWruvvtud+YtW7a4u3A+//xzd9ePCYJMQPL4449nV2bCHbOjyIQ35pUz8/dmR03WZXYPmVfYskIVEy4dc8wx7qt15nU2c5kwasiQIbrpppv2WXHWAd8m1DJBl7lM+GJ2ApmdPPtf5jW5Sy+91P1M1vX000+7wdiGDRuyAyYT1LRr1879iBnbvI62detWFS1a1A2YzO6jN998M3sMM+6NN97o7mgyr9OZV/vOPPNM93Pmeu6559zdTOZ1NfONd+b3P/jgzwHPgQIm420CKrNrKesyu6ZMfSawM+GWCZjMGvZ/lfD33393X9Ezr/L16NFD5tVDM96no8cEEjJlhUs9KpXVBx3bqcj/AjVvHltGQQCBOAgQMMWhy6wRAQQQiI4AAVN0eslKwiFAwBSOPuSmilwFTGaHUVZAYwIgswsna3eRCTrOPfdcPfjgg9nzm9e0zCtfCxYscIMocy5QTgGT2RVVuHBh9/U1c8i1CVayfpndRybA2vsyu3qqVq3qvoZnghtzmR1TJuAxZxHtf5kwzJwjdf3112f/yLxOZkIjE5aZEMm8Ivftt99mz2V2K5lX1PYOmMzNr7/+evYY5nwj8xqdCZnMjqisgMoEUqZ+c26SOWvJBGQdO3Z0z2syu7b2vw4UMJmw7aijjtKzzz6b/XHzqp/5PbPGNm3auAHTbbfd5taw92VePzRzmd1W5rVDc23evNkNZ0C4yQAAIABJREFUv0zIVKxaI1W85b+en8lkzlxa/UgXbV02SyZcerd9W5Vw+sqFAAII5FaAgCm3YnweAQQQQCCZAgRMydRn7igKEDDZ19VcBUwmyDGveZkrK2AaOXKku8unU6dO7rlJe+/uMa9ymeDDBDRmZ5G537weZnYqmcucJWR232TtYDJhidmJY37vUJcZ0wQ4//73v93gylyDBw92X0Xb+xW1rHFMyGPCrr0PBDevoJnX2szns16RO1TAZF4T3DsgMgGTCbZMgGRCJnP+kwmZDnSZoMzsKDJnNO1/mdcIzYHjWa8cmp9nnee092t95n4TGJnD1g877LAcAyYTQJmAyhzybXaEZV0m4DO7rczuLRUp6em3y2V9W5y2b9KVDerqiTYt2bl0qAeZnyOAQI4CBEw8HAgggAACNgkQMNnULWq1QYCAyYYu7VujZwGTOTfJnPNjXv8yr72ZnUUmQDKvr91///3uWUeHH364+vXr5+4kMuGT2e1kDsnOCpjM7qiPP/7YPdPInB9kLhNYmZ1T+39bnflZ48aNdcYZZ+jvf/+7+9msc4eefPJJ93U1ExyZYMmEUeYzpg7zqpr5Zjvzyp6pzdRo6k40YDK7rMwB3FnX3gGTGdMcSv7aa6+5O6PMZQ74Nq/FmbDH7CYyu5yydl2Zn5mzonbu3OmeqVS9enX3FUQTVBkr8zmz48jsmDrrrLPc85+Mnfl2PROsmSunHUxZc5lX5cqVK/enJ9N8258J5sy3yxUsX1MNL3lU6dW65+kJTlv+mWY/31+71i52vy3u306wxIHeeaLkJgQQ2EuAgInHAQEEEEDAJgECJpu6Ra02CBAw2dClfWv0LGAyw5qA6F//+pc2bdqkIkWK6Morr9QTTzyRPaMJSsxOH7OLyby+NWjQIPe1ur0PtjbhinklzOxyMgGRea3MhFcmVNn/MjuCTDBkdkdlXc8//7wb0GRmZrqv8JndOuagbHOZ1+OyXjcz/wIw38T2wAMPuD/La8Bkxtn7jCgzvtnlZXYKmcPBzRlNHTp0cAM1c5n5TNhlgipjZAKlrG+EMyHSu+++637OBG/mXrMryxyMbs6JMus5//zz9wm4zPxm19b+r8gNHDjQHSvrW/4O9GiuXbtWd911l3uo+bbdzmtsZaqoyhFtVPPE87Sgyolavav0AZ/oigUzlbpijJaMfVPLp//g4K1Q0Z1bdEm9OnqgeVOVd14L5EIAAQTyK0DAlF9B7kcAAQQQCFKAgClIbeaKgwABk31dTjhgys3Sli9f7p6PlNNlgiMTMJnL7C460O4ks6PHBCrmbKacrvfee8/dwWTCl9Kl9w1DTGhldu6UKlXqT7cfqr7crDWnz/7xxx9u0FatWrUDfsTUZw7/3v8yv5+SkuKeB7X3tXLlSlWuXDnh0o444gh3t5QJ8Q51LV261H1V0Oy8Mmc3uZfz+pwJnA54OYGSeQ3OXDVLltBf66bqmob1VN35NjsuBBBAwCsBAiavJBkHAQQQQCAIAQKmIJSZI04CBEz2dduXgClIBhO6PPLII7rggguCnDbUc5lzl8zOL3PguTnXKdHLvMpnDhs3h7Obs6Rmz56dvQOqmBP2pRQprKrOYekNU0qrdfnDdVKVSu5fCzq7qLgQQAABrwUImLwWZTwEEEAAAT8FCJj81GXsOAoQMNnXdesDJrNDx5xHZHbhcO0RMOc6mV1d5kyq/F7mX5R1S5fS3D498jsU9yOAAAK5EiBgyhUXH0YAAQQQSLIAAVOSG8D0kRMgYLKvpdYHTPaR21UxAZNd/aJaBKIkQMAUpW6yFgQQQCD6AgRM0e8xKwxWgIApWG8vZiNg8kIxwmMQMEW4uSwNgZALEDCFvEGUhwACCCCwjwABEw8EAt4KEDB56xnEaARMQShbPAcBk8XNo3QELBcgYLK8gZSPAAIIxEyAgClmDWe5vgsQMPlO7PkEBEyek0ZrQAKmaPWT1SBgkwABk03dolYEEEAAAQImngEEvBUgYPLWM4jRCJiCULZ4DgImi5tH6QhYLkDAZHkDKR8BBBCImQABU8waznJ9FyBg8p3Y8wkImDwnjdaABEzR6ierQcAmAQImm7pFrQgggAACBEw8Awh4K0DA5K1nEKMRMAWhbPEcBEwWN4/SEbBcgIDJ8gZSPgIIIBAzAQKmmDWc5fouQMDkO7HnExAweU4arQEJmKLVT1aDgE0CBEw2dYtaEUAAAQQImHgGEPBWgIDJW88gRiNgCkLZ4jkImCxuHqUjYLkAAZPlDaR8BBBAIGYCBEwxazjL9V2AgMl3Ys8nIGDynDRaAxIwRaufrAYBmwQImGzqFrUigAACCBAw8Qwg4K0AAZO3nkGMRsAUhLLFcxAwWdw8SkfAcgECJssbSPkIIIBAzAQImGLWcJbruwABk+/Enk9AwOQ5abQGJGCKVj9ZDQI2CRAw2dQtakUAAQQQIGDiGUDAWwECJm89gxiNgCkIZYvnIGCyuHmUjoDlAgRMljeQ8hFAAIGYCRAwxazhLNd3AQIm34k9n4CAyXPSaA1IwBStfrIaBGwSIGCyqVvUigACCCBAwMQzgIC3AgRM3noGMRoBUxDKFs9BwGRx8ygdAcsFCJgsbyDlI4AAAjETIGCKWcNZru8CBEy+E3s+AQGT56TRGpCAKVr9ZDUI2CRAwGRTt6gVAQQQQICAiWcAAW8FCJi89QxiNAKmIJQtnoOAyeLmUToClgsQMFneQMpHAAEEYiZAwBSzhrNc3wUImHwn9nwCAibPSaM1IAFTtPrJahCwSYCAyaZuUSsCCCCAAAETzwAC3goQMHnrGcRoBExBKFs8BwGTxc2jdAQsFyBgsryBlI8AAgjETICAKWYNZ7m+CxAw+U7s+QQETJ6TRmtAAqZo9ZPVIGCTAAGTTd2iVgQQQAABAiaeAQS8FSBg8tYziNEImIJQtngOAiaLm0fpCFguQMBkeQMpHwEEEIiZAAFTzBrOcn0XIGDyndjzCQiYPCeN1oAETNHqJ6tBwCYBAiabukWtCCCAAAIETDwDCHgrQMDkrWcQoxEwBaFs8RwETBY3j9IRsFyAgMnyBlI+AgggEDMBAqaYNZzl+i5AwOQ7secTEDB5ThqtAQmYotVPVoOATQIETDZ1i1oRQAABBAiYeAYQ8FaAgMlbzyBGI2AKQtniOQiYLG4epSNguQABk+UNpHwEEEAgZgIETDFrOMv1XYCAyXdizycgYPKcNFoDEjBFq5+sBgGbBAiYbOoWtSKAAAIIEDDxDCDgrQABk7eeQYxGwBSEssVzEDBZ3DxKR8ByAQImyxtI+QgggEDMBAiYYtZwluu7AAGT78SeT0DA5DlptAYkYIpWP1kNAjYJEDDZ1C1qRQABBBAgYOIZQMBbAQImbz2DGI2AKQhli+cgYLK4eZSOgOUCBEyWN5DyEUAAgZgJEDDFrOEs13cBAibfiT2fgIDJc9JoDUjAFK1+shoEbBIgYLKpW9SKAAIIIEDAxDOAgLcCBEzeegYxGgFTEMoWz0HAZHHzKB0BywUImCxvIOUjgAACMRMgYIpZw1mu7wIETL4Tez4BAZPnpNEakIApWv1kNQjYJEDAZFO3qBUBBBBAgICJZwABbwUImLz1DGI0AqYglC2eg4DJ4uZROgKWCxAwWd5AykcAAQRiJkDAFLOGs1zfBQiYfCf2fAICJs9JozUgAVO0+slqELBJgIDJpm5RKwIIIIAAARPPAALeChAweesZxGgETEEoWzwHAZPFzaN0BCwXIGCyvIGUjwACCMRMgIApZg1nub4LEDD5Tuz5BARMnpNGa0ACpmj1k9UgYJMAAZNN3aJWBBBAAAECJp4BBLwVIGDy1jOI0QiYglC2eA4CJoubR+kIWC5AwGR5AykfAQQQiJnAoQKmzTt2aNyq1fp61RpN/X2d5mZu1PLNm7Vh+w5XKqVIYVUtUUL1SpdS88PLqX2lCupYqaJKFC4cM0mWi8AeAQIm+54EAib7ehZoxQRMgXIzGQII7CVAwMTjgAACCCBgk0BOAdPXK1frP3Pm6qMly5TphEy5uUo74VLvGtV0RYN66lC5Ym5u5bMIWC9AwGRfCwmY7OtZoBUTMAXKzWQIIEDAxDOAAAIIIGCpwP4B07iVq3THlF/13Zq1/1tRAalmSymts1T7aKlymlS2mlS8zJ6fb8mQ1i+TVqZLC3+U0r+QFv/k/GC3++O2FcrroeZH6oQqlSwVomwEcidAwJQ7rzB8moApDF0IcQ0ETCFuDqUhEHEBdjBFvMEsDwEEEMiHwPvvv6/jjz9elSqFJ2zJCpjWntlbN0ycotcXLNqzwtLOzqP2V0vHXiyVT83dqtcukL57QfrmP1LmKvfec1Nr6fE2LVS+WLHcjcWnEbBMgIDJsoY55RIw2dezQCsmYAqUm8kQQGAvAQImHgcEEEAAASPw8ccfq0GDBkpLc3b8ONfcuXNVv359DR06VDfeeGNokLICppolS2jxps1SkZLSybdLJ90kFSuVvzq3bpTGDJVGD5a2bVR156ym4R2O07EVy+dvXO5GIMQCBEwhbk4OpREw2dezQCsmYAqUm8kQQICAiWcAAQQQQGA/gdTUVF155ZW64447sn/y008/qWVL53WzEF1ZAZNbUt120gWvShXqeFvhmvnSKxdI875RsYIF9Vq7Y3RG7ZrezsFoCIREgIApJI3IRRkETLnAiuNHCZji2HXWjEA4BNjBFI4+UAUCCERHYMyYMfrmm2/cBbVv314nnHBC9uI+/fRTmdBmh3MItdkp9Je//CX7Z2anUIsWLVTMeSVr1KhRSklJ0aWXXqpy5cq5n0lPT9eHH36o22+/Xc8884zmz5+vY445Rn369NkH74cfftC4ceO0YcMGNWvWTGecccY+P3/33Xf1yy+/uON36dLFnfPf//63brvtNnXo0MEdr2jRotn3dOrUSbVq1cr+Z1PD5MmTVaRIETVv3ly9evXK/tngwYPVu3dvLVmyRF9++aWqVq2qfv36edbcd955R2efffae8TpcK/V1dhsVKuLZ+PsMtNM5KPy9/tL4f6tQgQJuyHSO89ocFwJREyBgsq+jBEz29SzQigmYAuVmMgQQ2EuAgInHAQEEEPBO4IknntANN9ygCy+8UGXKlJH55++++07HHnusTjvtNH3//fc688wz3fDnpZde0rXXXuuGO+YyYc/GjRvdz5ugZ/ny5dq6dasWLlzo/nz48OHuvQ0bNnTDKRNEmbDo7bff1llnneV+ZsiQIfrb3/6m+++/XzNmzHB/tvcrbv3799e//vUvXX311dq9e7eefvppNwy64IILZIIxEzbtfZkwbO/xTzrpJLeuHj16uH9944039MADD+jOO+90b2vcuLGqVKmi3377TfXq1XODLPPanQm98nuNHz/eNdq2bZvU/T7n1735HTKx+0cOlEbeq6LOTqZRJ3XQiRz+nZgbn7JGgIDJmlZlF0rAZF/PAq2YgClQbiZDAIG9BAiYeBwQQAABbwTWrl2r6tWr65FHHtH111/vDmpCHhMIvffeezrnnHPcfzYhjLmef/55XXbZZe5OJPN6mglPTNgzYsQIN5T58ccf3R1KX3zxhcwuoqyA6bHHHnNDLHOZwKd8+fJu0GTGMaHO6NGj1bmz8w1qznXVVVdp5MiRWrRokRtcHXfccfrss8/UrVs39+cmtDFhlrlKlSqle++9V7feeuv//39inJ07ZteQCbZMMHXfffdpzZo1Kly4sPuZgQMHytSzYsUKd0eTWZupx5znZHZeffTRR+6OKLP7qlGjRnmGNmGW2S21apVzAPeJzq6ivo/meaw83fj+36SvhqiiE+pN6dFF1Us65z5xIRARAQIm+xpJwGRfzwKtmIApUG4mQwCBvQQImHgcEEAAAW8EzGtjrVu33idEyhr55ptvdl9bmzRpUvZkJiypXLmy+zpc165d3YCpSZMmbpCTdZUuXVrPPfecG05lBUxm59He45p5x44d6wZH3bt316BBg2T+bGk+N2XKFDcgMnOZ4On888/Xrl273J/vf1WoUMENmLLCMfNz87msgMm8mmZ2VJlX5LIus8OpVatWmjZtmlu7CZhMaGbWa67ff//dDZy+/vpr99vo8nqZHVMmKFNaF+maz6SChfI6VN7u27VTeqqHNPNzdataRSNPan9Aw7wNzl0IJFeAgCm5/nmZnYApL2oxuoeAKUbNZqkIhEyAgClkDaEcBBCwVsAERaeccooWL16sGjVq7LOO8847z32l7Kuvvsr+/c2bN6uksxPmzTffdAMkEzAdeeSRevTR/9+dc/jhh7uv0J177rluwGT+6r4i9r9rwIAB7nlPZieSeeXu4osvVs+ePVWoUCEVL148+9dTTz3lBld33323+3regS5TszmHKaeAqWPHju5ZTK++6hyq/b9rzpw57g6trADJBExXXHGFzKt45jKv/JmQzIRrWTulcttgs/vLPUeqhHMW1V3TpbJVczuEN5/PWCE92NRZ1Fq9ffyxOovzmLxxZZSkCxAwJb0FuS6AgCnXZPG6ITcB01sLFqmgw+PVv9Su/mGyapcqqdub7tmuzYUAAvESIGCKV79ZLQII+Ccwe/Zs9zWwA+3Wueuuu9zziubNm5ddgHldzuz6mThxorvzyQRM5lDuf/7zn9mfMQGTOcfJBFQmYDI7kLZs2ZL9cxMwmXApK2QyIdDer+HtvVrz6p05gHvlypWqVKnSnyDMa3nmNTTzul3WVdA5d8icwWRekbvooos0d+5cd31Zl3l9z9RtwjNz9pIJmMw30d14443uR/IbMO3cudM1mjVrlnT2U86p6Vf518BERv7mGemtK9UgpbRm9Oymwo4PFwK2CxAw2ddBAib7ehZoxbkJmB6enq5hs3/TgtNO9aTG63/8Sb/88YfGnXySJ+MxCAII2CVAwGRXv6gWAQTCLWBeA1u/fr37Opo5g8jsGjIHfJtdPG3atHF3J5kdPuYcozvuuMPdTWTOKzKXCWpMwGPOcMq69g+YzOHhJrTJukzAZA7nNucrmcsEXGYHk/k2N3NOkgl+zHlNJjTavn27uwPp8ssvd19hM3Waesy30plwyJzPZM5wMjuUFixY4J4LZQ4Sf+2119yAydRpvjHO7JQy3343YcIEPfzww+65U88++6w7v9cBU9ZrgapQX7p7pvONcXvOfkraZb5Z7sEm0qrZ7GJKWhOY2GsBAiavRf0fj4DJf2OrZ0g0YOo15mut27Zd0/5Yr3uPaqKCzuvzN6Q1dNe+wflDw9sLFmvG+gw1LFNaVzV0/kXsXE87YdSardt015FHZBsNnjZTRx5WVrOdP9Q8/9t896tXL61fR1+tWKUPTzheHUZ/paolSujt9m2z73nECbaOLFdW3apV1Q7n3X0TdA1wxjRjjV25SqM6dXQ/Oztjg0YtW65lm7aoUdkUXVyvjtW9oXgEoi5AwBT1DrM+BBAIUmDq1Knua2rmr+Yyr4W9//777jlE5lBvc4C2OZfIXObcpVdeeSV7N9GBAibzZ0QT8GTtYDJBz95nMO0fMJlvqbvlllvcHU0m+DEHj5tQyOxCMpc5p8nUZ3Yxmev00093DyA3lwmLzCtyWX9vxtn7DCbz+2Z31d///ndlZGS4PzOv9pk1ZB36bX5v72+ty+8OJmNidknpTOeb9jpeG2Qrc57r66elt6/WiZUr6qsuJ4ajJqpAIB8CBEz5wEvSrQRMSYK3ZdpEA6aGH410wp3dTmC0Ve0qVlDZokX0lhMCTfl9nU4f96161aiuUoULaZAT/vSoXlWfnNheXyxfqS5fjtMzx7TS5Q3q6Z8z0jVkxmzN7n2KLv9+khsObdyxUx0qVdBvGzI1q3d3Xen8vpnjvY7tsglbj/yvTq9Z3Q2V0p0Qq/HHo9x/sZZ2/uvY584cW889Q+84r+/9dcKPurlxQ611Qq1nfpunG9MaaGjrfb/y1pa+UCcCcRAgYIpDl1kjAggELbBu3Tp3p9H+ZzGZOkzAZHY3Heigba/q3LFjh3uwd9WqVQ84jwmYTFBldi7tfZn7TH1Zr9CZNZhvl9v/MmMf6DU7r+o345g5qlWrpp0FnF1LDznnH5U8zMvh8z7W5gxpQBUV3L5ZS/v2VBXnP8pyIWCzAAGTfd0jYLKvZ4FWnGjAZIq69aef9fLcBVp5Zu/sGrt8MVYtDi+nh1s2c3/vs6XL1d3Z7fRd1046tmJ5XeEERi/Mne++K95oxGd67tjWzo6luu5n+zrB1PLNWzShW6fs8Q4UMLX8dLTOqFVjn4DpcmeMZ5yxzGX+kJL6wae656gjssc2u5xum/KLMs4+TSnOV9dyIYBA+AQImMLXEypCAAEEEJC7c+uvf/2rdMQpzjfHOd8gF6br6Z7StE/0Uts2upDd+mHqDLXkQYCAKQ9oSb6FgCnJDQj79LkJmG5zAqZ3Fi7W/L3OYCr6+rs6zQl/Wh5+mBP0SLuc/+fOn6fpeSf8ucQJgdY6u5GqDB+hYs5BhMc7O5WyXmczLn/5+jutdn7+RecTDhowNf/kc51Vu+Y+AdP8Pj2UWnrPf9Wa5exqSnN2Nd3k7F6qVLyYW8eSTZv1pPOK3vdOeHVMhfJhbwP1IRBLAQKmWLadRSOAAAKhF7jmmmtkvv1OfZwzqTr/LVz1ful8098HN+sK58/Z//nff2wNV4FUg0DiAgRMiVuF5ZMETGHpREjryE3AdJ8THL27aImmO7uRzGXCowrvfqRWzg6m6iVLqLj5WlonSCrm/PW6RvV1VLk924lPdXY0fersbLrT+ba4B5ofmS1xifNKmwmYPnZep8u6DrSD6SgnYDrnIAHT+JWr1fG/Y3RS5UrObqXCe+pwfxXUY84rcqYeLgQQCJ8AAVP4ekJFCCCAAAJSu3bt3IPEdcNXUsOQnXU0Z5z02Ak6tsLh+q5bZ9qFgNUCBEz2tY+Ayb6eBVpxbgImc6j2m85ZRz+f2jW7xnJvf+C8HneUe8bSga7X5i1wz0bq55yH9Fj6HKWbV+XKlnE/es0Pk7V406Z9Aqb+k6Zo6ro/NGavgwubOruTzk2tleMOpiUbN6nmB59oQteT1NY5H4oLAQTsECBgsqNPVIkAAgjETcAcUr5s2TLp74ukcjXDtfx1S5xvtavpfClOcS3r2ytctVENArkUIGDKJVgIPk7AFIImhLmE3ARMz82Zp8t/mOSGREWd3UF1nK+9vf7Hn9xA6KXjjla9lNLut7y9Pn+h+064+XtzNtJtTdJ0vRMwtXDOUqrnvNY2/H8HeN/j7Ih61hnzl1NPVsb2He79w2b9pmsn/uSGRanOwY53Tv1VLzkh1QPNmuYYMBlfcxbUQidomuCc/VTBeU3uj23bNHzhEl3WYM95T1wIIBA+AQKm8PWEihBAAAEEpOLFi2urs8teQzdLRYqHi2S7U1f/4irqvDVgvuiGCwGbBQiY7OseAZN9PQu04twETKu2bNHxn3+lOc43vtV3wqU5fbo73wK3QzdNmqqXnRDIvCY3L3OjulSprA9PaCcTIP249neNP/kkd03frFqt9qPH6O3jj9VZzo4k8w10nZxgaN227epUpVL2WUx9xn6jj5Y4/9XIucy5SpOcMbpWrXLQgGl2xgb3EHJzX+1SJd2w6UznbKh3OhwXqCeTIYBA4gIETIlb8UkEEEAAgeAEsr9l79/OwZ5hvK4r4Fa1+/yzwlgdNSGQsAABU8JUofkgAVNoWhHOQnITMJkVmEO85zshktlttP+1zDlYu3DBAs5B24n/l55NTkC1bPNm1U9J2We4zc7vF3H+y0xh51duL1PHYUWLqGRh56tluRBAILQCBEyhbQ2FIYAAApEUeOihh7R27Vr17t3bPWepUA7ndLKDKZLtZ1EhFCBgCmFTDlESAZN9PQu04twGTIEWx2QIIBBpAQKmSLeXxSGAAAKhExg6dKhuuukmt66KFSuqZ8+e6tOnjzp37qwSJUpk18sZTKFrHQVFVICAyb7GEjDZ17NAKyZgCpSbyRBAYC8BAiYeBwQQiKLALucMykmTJumrr77SxIkTlZ6erqVLl2rDhg3uclOcXdsmwEhLS1ObNm100kknqXXr1iqYh13bUfTzc02jRo3SKaec8qcpSjnnfnbr1s0Nm3r06KFTTz31f98iN8b5FrkT/Cwp92P/Nl76V0e+RS73ctwRQgECphA25RAlETDZ17NAKyZgCpSbyRBAgICJZwABBEIkcOONN6pjx4467bTT8l2V+daxp556Sq+88ooWLXK+fSwXV61atXTBBRfo6quvVrVq1XJxJx/NjYDpS+3atQ96S2HniIVmzZpp8uTJ0mn/lDrdnJsp/P/sV0Ol92/SFfXr6j/HtvZ/PmZAwEcBAiYfcX0amoDJJ9ioDEvAFJVOsg4E7BNgB5N9PaNiBKIk8PHHH6tXrz1f827O5HnyySfdnUW5vdatW6eBAwe64ZL7zWPmKueEGE2cnTL12ktVm0iH13K+mqzsnp9tWS/97gRQy6dLc7+Wpn8mrVvo/qhYsWJuyHTPPfeoXLlyuS2Fz+8lsHr1as2cOdP9NWPGjOy/X7JkSY5O5kymu+66S6mpqbr44oulI7pL13waLtennWd22sd6sW0bXeR8azMXAjYLEDDZ1z0CJvt6FmjFBEyBcjMZAgjsJUDAxOOAAALJEsjIyFCTJk1kwoYiRYpo+/btKlOmjP7xj3/oiiuuSPh1tQ8++MANhFauXCkVcL6YpNnp0gnX7wmWCuz5pq9DXs4XqLhB09gnpJ/fd74abJcqVarkBlann+6Mx5WjwG7HbvHixdnhUVagZP66Zs2aXMmZnU2vvfaajj/+eLefZifZroJFpUErpBL/CwdzNaIPH97ivGZ5R2Vp+2YfBmdIBJInYP63zGWHAAGTHX1KWpUETEmjZ2IEYi9AwBT7RwAABJImcO2112rYsGE6utlReqfFUbph/iKNGOecbeP+yG4fAAAgAElEQVRcJmB45pln1Lhx4xzr2+F82+3f/vY3PfbYY3s+0+AE6Qzn76sflb81Lf1FGt5PmjPWHef666/XkCFD3BAszpfxnjdv3j5BktmVZM63yszMPCBN2bJl3R4eccQR7l+zfpndYa+//vo+95x99tl6+umnddhhh2X/fqdOndxztHT2MKn91eHg/+Y/0ltXhaMWqkDAQwECJg8xfR6KgMlnYNuHJ2CyvYPUj4C9AgRM9vaOyhGwWWDChAlq3769+xX1ky44V0dt3bMbZHiRErp+5CitcHavmFfVBgwYoNtvv11Fizq7WPa6Nm/erDPPPFOffuq8OlW4mNTnEanjdYnvWDoUnvkv+eOdUOMD5+yfHVvVvXt3DR8+fJ9vOTvUELb+fMuWLZo9e/afXmubM2fO/79+uN/iKleu/KcQyYRJOZ1lNWjQILe35ipdurQef/zxPa/D7Xe98847MsGTKjaQ7pohFSqcXNZdO6UHnNctV83Sm2++qXPOOSe59TA7AgjEUoCAKZZtT3zRJmAq6fwBq0qJ4onfxCcRQAABDwRWbN6iTTt3iv9q5QEmQyCAQEIC5oykli1bumfyDDjjdD1YfN/Q4A8nRLhl9To9/9ko9/82mdfonn32WbVt29Ydf9u2be5X248ePVoqVUG68iOp7nEJzZ3rD837Tnqmt5S5WieffLJGjBjhBl9RuMwrinu/zpb19/Pnz9dO598L+1/mz6vmIPT9dyOZIOnwww/PFcmHH37oHupuvrnvjTfeUIMGToB0gMvsmjLzmXBL5zg7h46/IlfzeP7hCc9Lb1ym+vXru3bmMHIuBBBAIGgBAqagxS2bz/wLmwsBBBBIpgABUzL1mRuBeAncd999uv/++9Wwbl1NbddGJXI492NM0RK6csx4zXECj4IFC+r/2rvv8CqqfY3jb3pC70VEUJCS0HsnNGmCIL0rtmPFLlZUFOwerCgeuvQqCEiHoPQSCEE4iNJ7r+l3ZhCuR1ESspPZM/s7z3MfrjCz1m99fvuPe99nZq1HHnlEgwYNkvlp3ZgxY6Tsxj44/ZZKhcpkLODh7caR9JHS2UPq3r27tUeQk/5vtyNHjlwzSPq7jbbN0MQMUP74SZv5v5cpU0ZZs2b1iLUZGH3zzTcaOHDgX95O+/MEV99iyppXejlGylHIIzWkeZAzxh5fb5eTzh/j7aU04/EAAgh4UoCAyZOajIUAAggggAACCCDgSAHzraXKlStbG3ov6dtbDX//NO7vFnPRCJYGXkjQBzO/s54xT3UzT4xTSHbpKWO/ppsrZY6DuS/Tx8am4ZfO6OOPP9aTTz6ZOfOmcpY/brT9x9PazLdsjh8/fs1RwsLCVLp06b8ESebbRH/+JDGVZWTIbebazE8U582bJ5VtIT1sfBZp/C4y9UpOloa2kWLnqFmzZvrhhx8cFTJmqhWTIYBAhgsQMGU4MRMggAACCCCAAAIIeLNAsvH/pJv7Lpn7Lz3QupW+zp0t1eVGh4SpZ9RKxRh7A1nXfVOkyh1S/bxHboyeIQ272/hELljr16+3Pt3L7Mv8ZOyXX375yxtJqdlo+89vJBUvXtzaA8sJ1/79+61g8ujRo1KT56T272Vu2TNekBa+p7x582rTpk26+eabM3d+ZkMAAQT+IEDAxM8BAQQQQAABBBBAwKcFzBPjzM/bChsbQse2aKJcSYmp9jDfYmk4f4mijhrH3te5X+o+LNXPevTG8cbpYT9+ZZ1yt3z58gx7i8XcaHv79u1/CZLMzbfNPaiudZkbbf85RDL3L/q7jbY96pIJgy1ZskTNmze33mTTnQOlFq9kwqzGFPPekma/ap0iOGfOHDVt2jRz5mUWBBBA4G8ECJj4aSCAAAIIIIAAAgj4rIC534/5xo+5sfSUvn3UIf7yqXGpvWbu3a92y340jhwrIL1m7ImU5f+Psk/tGB657+IZ6c3S1n5M06ZNszaqTs91+vRpmW8f/fmzNnOjbfONrz9fVzbavhIk/XHD7bRutJ2euu161twQvFevXpdtIvsZbzJ9kHEny5knxk1/Vlryb2sPsNGjR6tHjx52LZ15EUAAgasCBEz8GBBAAAEEEEAAAQR8VuCuu+6yTmBr17Chphc1NudO41V1znxtOHFK6vSZ1PDRND7t4dujvpQmPqKKFStq48aNqXqL6fDhw9fcaNv89Otal7nRdokSJa6+kXQlSDL3TMqWLfWfFnp45V4x3MSJE9W7d+/Lb3KVaCD1HiXlLe7Z2k7skcb0kf671NqPatSoUeratatn52A0BBBA4AYFCJhuEI7HEEAAAQQQQAABBJwtMHnyZHXu3Fk5cuRQ7N1tVSTx2p94/d0qlx8+qoYLlhinxhmnh735qxQUai9IQpw04FbpzEGZn21FRkZa9Zif8e3Zs+d/gqQrbyadOHHimjWbG22XKlVKf3wTyXw7yds22rYX/K+zr1y5Uh07dtSBAwekYCNwa/6S1MjYeN04eTBdl/lm3dIhxmdxb0vx51S4cGGZv9+6deuma1geRgABBDwpQMDkSU3GQgABBBBAAAEEEHCEgHnimxmeHDp0SF/26qF/pRj756TxuvenNRq56zcjRDD23Glj7L1j92XuHTXF+Dwr6gtr42nz0z/ztDbzU7fz589fs7qcOXOqTJkyfwmSnLTRtt3sf57/2LFjevzxxzVhwoTL/5TdeDOu/iNS7Xul3EXTVu7JfdKqEdLyL6zPH83LDEU/++wz5c+fP21jcTcCCCCQwQIETBkMzPAIIIAAAggggAAC3idw//336z//+Y/qVamiZWVLyN/PL01FJhh77RSYPFOnzI2dXzNOkCtwe5qe98jNceekBcapZYe2Xf6fo/+Vkq79FlaBAgWsz9r+/EaSudG2uX8Sl+cFFi1apJdeeklr1qz5fXDDuVgNqYyxGXex6sZvxtgzK2dhKST75X+POyudPigdMfby2r1W+nmh8af5bIr1z9WrV9egQYPYzNvzrWJEBBDwkAABk4cgGQYBBBBAAAEEEEDAGQLm52NNmjSx9rDZ2LOLysZdSnPhK44cVX3j9DgVCpde2Zrm5z3yQJIRbj2VVUq+8vaVEWDkvkW6cNwIK87p2WeflbnHlBksmcfYc9kjYP7evvrqK82aNUsXLlxIUxFZsmRRmzZt9OCDD6px48ZpepabEUAAgcwWIGDKbHHmQwABBBBAAAEEELBN4OLFi9Ym2P/973/1ZpfOejXoxkp5d+s29d+4RWrwmPHN0qc3Nognnlr0ofEJlnGCXcGyRthVxngbxtj3Z7LxmdyyT/T2229bb9BweYeA+Zni0qVLFRUVpejoaO3cuVPmJuvnzhlvohmXuUl6wYIFVbJkSes3Wr9+fWsfraxZjRCRCwEEEHCAAAGTA5pEiQgggAACCCCAAAKeEXjxxRf1zjvvqJxx6tm66hUVcoPDdo1aqYm790q9jJPCava+wVEy6LE1Y6XRvazNps2NoLkQQAABBBDIDAECpsxQZg4EEEAAAQQQQAAB2wU2bdqkGjVqKCkpSSvu7a3acWn7XOmPC6jy/XxtPHlKes7YI8fcT8ebrj3rpfeqWW/BmGvmQgABBBBAIDMECJgyQ5k5EEAAAQQQQAABBGwVMEOlWrVqad26dXr8rrb6JHtouuopaGzwfSQuThpkbMqco1C6xvL4w2cOSy8Vsk4ZO3LkiMeHZ0AEEEAAAQSuJUDAxO8CAQQQQAABBBBAwPUCH330kZ555hkVNU5N29q0gbIbp8Cl5wr+drISUozTvT42NggPutEP7dJTwT88m2icJPdkiAIDA5VgnnLHhQACCCCAQCYIEDBlAjJTIIAAAggggAACCNgn8Ouvv6p8+fIyN1me1be37oxP+6lxf67eb+yky3/12eUj5L3uesw4Uc64UswQjAsBBBBAAIFMECBgygRkpkAAAQQQQAABBBCwT6BFixb64Ycf1KVpU00olMcjhVx9g+nfxmdygcEeGdNjg/AGk8coGQgBBBBAIPUCBEypt+JOBBBAAAEEEEAAAYcJjBkzRr1791aePHkU27aFCiYmemQFBYw9mI56+R5M+fLl09GjRz2yXgZBAAEEEEDgegIETNcT4t8RQAABBBBAAAEEHClw7NgxlS1bVuafI/r00j1JxttGHroqG6fIbfLyU+QqVKig6OhoD62YYRBAAAEEEPhnAQImfiEIIIAAAggggAACrhTo2bOnvv32WzWpVVMLStwiP7/L+xJ54uq8/CdN3rNP6jVKqtnbE0N6boy130qjeqpDhw6aMmWK58ZlJAQQQAABBP5BgICJnwcCCCCAAAIIIICA6wTmzZunli1bKkuWLNrctYNKxHvu7SUT652YbXpx0xapwWNS50+9y2/Kk9LSIXrrrbf08ssve1dtVIMAAggg4FoBAibXtpaFIYAAAggggAACvilgnhZXrlw5/fbbb3q3Wxc9H+D5k9RWHDmq+vOXSIUipFdivAt6UEXpwGYtWbJEkZGR3lUb1SCAAAIIuFaAgMm1rWVhCCCAAAIIIICAbwo8/fTT+vjjj1U5IkKrK0coKAMYEpKTZW70fSohQRrwXyl/yQyY5QaGPLZLer2EcuTIYW3wHRzsZSfc3cCSeAQBBBBAwBkCBEzO6BNVIoAAAggggAACCKRCYO3atapdu7a139KqPj1UNe5iKp66sVv6/Lhao3/dLbV8TWr9xo0N4umn5hh1zHld5v5T5gl6XAgggAACCGSWAAFTZkkzDwIIIIAAAggggECGCiQYbxNVr17dOjnt2fbt9X7WjHh36f+XsOzwEUUuWCrlKCy98asUFJKh67vu4InxxttUt0mn92vhwoVq0qTJdR/hBgQQQAABBDwlQMDkKUnGQQABBBBAAAEEELBVYPDgwXrppZd0W7FbtLlhHWU1PmPLyCslJUVV5izQppOnjI2+Pzc2/H4kI6e7/tgrvpIm/EsVKlTQpk2bPHpq3vUn5w4EEEAAAV8XIGDy9V8A60cAAQQQQAABBFwgsGPHDlWsWFFxcXH64d7eahafcZ/G/ZFr+p59unv5T1L2QtJrP0thOe3RvHRWerO0dOagpkyZog4dOthTB7MigAACCPisAAGTz7aehSOAAAIIIIAAAu4QMN8katy4sZYuXao+LZprZL7MC3nMuRsYp8mtOHpMqvug1M14i8iOa+KjUtQXqlOnjlasWMHbS3b0gDkRQAABHxcgYPLxHwDLRwABBBBAAAEEnC7wzTff6IEHHlD+fPm07c47lDcxMVOXFHvqtPWpXFxyivTANKliu0ydX1tmSV/dZZwYF6R169apfPnymTs/syGAAAIIIGAIEDDxM0AAAQQQQAABBBBwrMDBgwcVERGhkydPatw9vdUt8ZItaxmybYeeXL9JCs0hPRUlFamQOXXs3yJ9XF+6dFoffPCBnnnmmcyZl1kQQAABBBD4kwABEz8JBBBAAAEEEEAAAccKdOrUydpzqFW9evq++E22rcP8VK7nj6s17rc9Uk6jjieWSAVLZWw9h3dInzQyTo07oK5du2rcuHF8Gpex4oyOAAIIIPAPAgRM/DwQQAABBBBAAAEEHCkwc+ZMtWvXTtmyZVNMx3Yqlhhv6zouJSWpzZIoLTx0RMpWQPqX8ela8RoZU9Nva4zP4tpKZw+rSZMmmj17tkJDQzNmLkZFAAEEEEAgFQIETKlA4hYEEEAAAQQQQAAB7xI4c+aM9Wncvn37NKRndz2hzN136e80zhv7P3Vc9pPmHTwkBRqBT4ePpXoPGRtT+HkG0HhTSiuMjcSnPiUZnwPecccdmjZtmrJmzeqZ8RkFAQQQQACBGxQgYLpBOB5DAAEEEEAAAQQQsE/gkUce0ZdffqmalSpqRUQpBXoqwPHAkhKSk/Xkuo36Yscvl0cr1UTqNEQqHJG+0Q9ulaY8KW1faI3z8MMPa8iQIQoKCkrfuDyNAAIIIICABwQImDyAyBAIIIAAAggggAACmSewYsUKNWzYUIGBgVrXs6vKx9uzsff1Vjx59149umaDjsbFGW8wBUhVOkkNH5duq3O9R//333f9JC37VNowWUpJUj7jtLzPP/9cnTt3Tts43I0AAggggEAGChAwZSAuQyOAAAIIIIAAAgh4ViDOCGsqV66sbdu26ZVOHTUwxN+zE3h4tONGva9Hb9XXO3cp3nizybry3iZFtJJK1JMKhUu5i14+fc68Lp2RTu6VDsVKv6yQts6Rju+y/ik4OFgPPPCA3njjDeXNm9fDlTIcAggggAAC6RMgYEqfH08jgAACCCCAAAIIZKLAgAED9Oabb6p0iRLaWKeawsw9iRxw7Tt/QZ/v2Kkxu3Zr/8WLaaq4SJEi6tWrlx599FHdfPPNaXqWmxFAAAEEEMgsAQKmzJJmHgQQQAABBBBAAIF0CWzdulVVqlRRQkKClvbtrQZxaQtq0jW5hx5OMt5iWn38hBYbJ82tM/7cfuasDhiB09mERF2JygICAtSsWTPVrVtXjRs3Vs2aNWX+HRcCCCCAAALeLEDA5M3doTYEEEAAAQQQQAABSyDZCGbq1aunlStX6qE2rTU0p7tOTTtq7CdV9rt5On7ihEaMGKF77rmHziOAAAIIIOAoAQImR7WLYhFAAAEEEEAAAd8U+Oyzz/T444+rcMGCim3RWLmSklwF0evISY2dv0BNmjTRggUL5OdFp+K5CprFIIAAAghkmAABU4bRMjACCCCAAAIIIICAJwT27t2riIgInT17VtP79lG7eOd9GvdPDvOCw9Ry+CiFhYVpy5YtKmHsL8WFAAIIIICA0wQImJzWMepFAAEEEEAAAQR8TKBt27aaNWuW2jeK1LQiBVy1+nP+ASq/ZIV+M0K0d999V88//7yr1sdiEEAAAQR8R4CAyXd6zUoRQAABBBBAAAHHCUyaNEldunRRzpw5FXt3G92UEO+4NfxTwU+fj9PH02eqcuXKWrNmjQKNvZi4EEAAAQQQcKIAAZMTu0bNCCCAAAIIIICADwicMDa8Dg8P1+HDhzW0Vw89lJLgqlWvNT6Nqz1qrLUmM1wyT8jjQgABBBBAwKkCBExO7Rx1I4AAAggggAACLhe47777NHz4cNWvWlVLy9wmfxdtfB1vrKX62mht/vlnPfvss3r//fdd3k2WhwACCCDgdgECJrd3mPUhgAACCCCAAAIOFFi8eLGaNm2qkJAQbezeSWXi4xy4ir8veXCSn14aP1G33XabtbF3lixZXLU+FoMAAggg4HsCBEy+13NWjAACCCCAAAIIeLXAxYsXVaFCBe3cuVMDu3TWK0FeXW6ai9sRHKpK4yfLXOf8+fPVrFmzNI/BAwgggAACCHibAAGTt3WEehBAAAEEEEAAAR8X6N+/v3WiWrnSpbW+RiUFp6S4RiTZWEuTHb9p6dq16tOnj0aOHOmatbEQBBBAAAHfFiBg8u3+s3oEEEAAAQQQQMCrBDZt2qTq1asrOTlZP97TU7XiL3lVfekt5puAYD1gbOxdoEABxcbGKm/evOkdkucRQAABBBDwCgECJq9oA0UggAACCCCAAAIIJCYmqnbt2lq3bp2eaNdWQ7KFugrlYGCwwmfM1qlTpzRu3Dh169bNVetjMQgggAACvi1AwOTb/Wf1CCCAAAIIIICA1wh8+OGH1olqtxQpopgm9ZXdeIvJTVeng8c0ZdFitWrVSt9//72blsZaEEAAAQQQEAETPwIEEEAAAQQQQAAB2wV27dql8uXL68KFC/q+bx+1ir9oe02eLGCmsbF3u+GjlS1bNsXExKhYsWKeHJ6xEEAAAQQQsF2AgMn2FlAAAggggAACCCDg2wIpxsbXLVq0sE5U69a0qcYVyuMqkNP+AYpYsFT7Dx7UkCFD9MQTT7hqfSwGAQQQQAABU4CAid8BAggggAACCCCAgK0Co0ePtk5Uy5Mnj2LbtlBBYy8mN12PnL6gL2fNVs2aNfXjjz8qICDATctjLQgggAACCFgCBEz8EBBAAAEEEEAAAQRsEzh69KjKli2r48ePa2SfnuqTFG9bLRkx8YqQMDUcMcYKldavX299BsiFAAIIIICAGwUImNzYVdaEAAIIIIAAAgg4RKBHjx7WiWpNa9XU/BK3yM/PzyGVX7/MS/JTlVXrtW3nTr3yyisaOHDg9R/iDgQQQAABBBwqQMDk0MZRNgIIIIAAAggg4HSBuXPnWieqZcmSRZu7dlCJ+DinL+l/6n89LllvTJ6i0qVLa9OmTQoNDXXV+lgMAggggAACfxQgYOL3gAACCCCAAAIIIJDpAufOnVO5cuW0e/duvd+9q571T870GjJywq3GqXFVxk5QQkKCli5dqgYNGmTkdIyNAAIIIICA7QIETLa3gAIQQAABBBBAAAHfE3jyySetE9WqGCHTqorhCnLPl3FKMtpZf+t/tXLjRj300EMaOnSo7zWYFSOAAAII+JwAAZPPtZwFI4AAAggggAAC9gqsWbNGderUsfZbWt2nh6rEXbS3IA/P/rlfoB4bM0433XSTYmNjlTNnTg/PwHAIIIAAAgh4nwABk/f1hIoQQAABBBBAAAHXCpifjFWrVk2bN2/Wc3e313tZgly11r1BwYqYMlNnz57V1KlTdffdd7tqfSwGAQQQQACBvxMgYOK3gQACCCCAAAIIIJBpAoMGDdLLL7+sEsWLaXP92sqS4q69l9ruPqhZUVFq3769pk2blmmuTIQAAggggIDdAgRMdneA+RFAAAEEEEAAAR8R2LFjhypWrKi4uDjN79tbTV32adykoDB1GTHK+iTO/DTO/ESOCwEEEEAAAV8RIGDylU6zTgQQQAABBBBAwEaBlJQUNWrUSMuWLdM9LVtoRN4cNlbj+alPBAQqfO5CHT5yxNrU29zcmwsBBBBAAAFfEiBg8qVus1YEEEAAAQQQQMAmgWHDhunBBx9Ugfz5Fdu6mfImJtpUScZMe9+Jsxo+Z67q169vhWjmBuZcCCCAAAII+JIAAZMvdZu1IoAAAggggAACNggcPHhQ4eHhOnXqlMbf01tdEy/ZUEXGTbk4JExNh49WcHCwoqOjVbp06YybjJERQAABBBDwUgECJi9tDGUhgAACCCCAAAJuEejYsaN1olrrevU0u7i79iW64OeviitWaeevv2ngwIF65ZVX3NI21oEAAggggECaBAiY0sTFzQgggAACCCCAAAJpEZgxY4Z1olq2bNm0tVN73ZIQl5bHvf7e/hcT9e7UaSpfvrzWrVtnvcXEhQACCCCAgC8KEDD5YtdZMwIIIIAAAgggkAkCp0+fVkREhPbv369PenbX43LXvksbQ0JVc/R4JSUl6ccff1StWrUyQZUpEEAAAQQQ8E4BAibv7AtVIYAAAggggAACjhd4+OGHrRPValWqpBXlSinA8Sv6/wUkpki1omO1PiZGTzzxhIYMGeKi1bEUBBBAAAEE0i5AwJR2M55AAAEEEEAAAQQQuI5AVFSUIiMjFRgYqPU9u6lc/EVXmX2Y7K9nx03QLbfcoq1bt1qfAHIhgAACCCDgywIETL7cfdaOAAIIIIAAAghkgEBcXJwqGW8t/fzzz3q1U0e9GeKfAbPYN+Su4BBVmDhN58+f1+zZs9W6dWv7imFmBBBAAAEEvESAgMlLGkEZCCCAAAIIIICAWwRee+0160S1MiVKaGOdagpNMb4nc9F1xy97tWDlSnXr1k3jxo1z0cpYCgIIIIAAAjcuQMB043Y8iQACCCCAAAIIIPAngRhjT6KqVasqMTFRS+/tpfpx7vo0bnRAiPqMGqO8efMqNjZWBQoU4DeAAAIIIIAAAoYAARM/AwQQQAABBBBAAAGPCCQnJ6tu3bpatWqV/tXmTn2ZM4tHxvWWQY4EBCl81lwdP3FCI0eOVJ8+fbylNOpAAAEEEEDAdgECJttbQAEIIIAAAggggIA7BD799FPrRLWbChVS7B2NlDM5yR0L+30VPY6c1Lj5C9S0aVPNnz9ffn5+rlofi0EAAQQQQCA9AgRM6dHjWQQQQAABBBBAAAFLYO/evYqIiNDZs2c1vW8ftXPZqXFzg8PUavgoZcmSRVu2bNFtt91G5xFAAAEEEEDgDwIETPwcEEAAAQQQQAABBNItcOedd+r7779Xh0aNNKVI/nSP500DnPMPULnFUdq9b5/ee+89Pffcc95UHrUggAACCCDgFQIETF7RBopAAAEEEEAAAQScKzBhwgTrRLWcOXMq9u42uikh3rmLuUblT567pCEzvlOVKlW0evVqBQYGump9LAYBBBBAAAFPCBAweUKRMRBAAAEEEEAAgT8IjB8/3gpcfOE6YWx4HR4ersOHD+ur3j31YLK7wqU1IWGqM3Kstd+SGS6ZIRMXAggggAACCPxVgICJXwUCCCCAAAIIIPC7wPTp03XkyBE99NBDqTaZNWuWtelzWFiY9czMmTPVrl07LVhweTNot1/33nuvdaJag2pVtaT0bfJ30cbX8cZaqq2N1paff7Y+izM/j+NCAAEEEEAAgWsLEDDxy0AAAQQQQAABBH4XaNWqlQoUKGAFJqm54uPjFRISIjNkMvcgunKtWbNGNWrUSM0Qjr5n0aJFatasmWWwqXtnlY6/5Oj1/Ln4QYl+ennCRJUoUUKbN2+2NvjmQgABBBBAAAECJn4DCCCAAAIIIOAjAuabJmbwsXv3bpkhyGOPPabSpUtbqx83bpzWr1+vggUL6o477lClSpWsv3///fc1adIkXbhwwXqDKV++fOrevbsOHjwo882mHTt26NZbb1X79u11yy23aOPGjVq8eLGeffZZPfjgg6pWrdr/7M1jvtnzx8v8bG7Dhg3WuE2aNLHuv3INHjzYekPGDKqWLFlincaWlreo7GjrxYsXVb58ef3yyy96q0tnvRxkRxUZN+f24FBVGjdJcXFx1ttoZs+4EEAAAQQQQODvBXiDiV8HAggggAACCLhOoGrVqsqVK5cVAIY5kPMAACAASURBVLVt21b169dXy5YtrXDo5MmTVjCSI0cO63O22bNnq3Xr1uratat1Cpr5qVvNmjWtAMgMfcw3mu666y4dOnRIoaGhVmBlhioHDhyw/n3ZsmV/2ZfHDJJiY2NVtmxZ7dy506rB3KPo0UcfVUxMjBVYTZkyRR06dFBiYqKCgoLUvHlzK8xq2LChPv30U/Xp0yfVb1LZ0cAXXnjB+mSsfJkyWle9ooJTUuwoI0PmTDbW0njHr1q2dp3uuecejRgxIkPmYVAEEEAAAQTcJEDA5KZushYEEEAAAQQQsATMgMkMdH766SfrbSPzMt8oMt9oMkOnK5cZOJ0+ffrq31WuXFkVKlTQqFGjrt4THR2tihUrWv+dYgQPZgBlBg7mJt7m2y1m6LRw4cKrb7iY4VPJkiWvBkwPP/ywzDHMWq5c5rN79uzRjz/+eDVgMt+W+vbbb61b3n33Xb3yyitKSEjwyo6ab2+ZnwCaHj/e00s14y54ZZ03WtQw/2A9OHqsFS5u27ZNefLkudGheA4BBBBAAAGfESBg8plWs1AEEEAAAQR8R8AMmMzwyAxprlxm6GO+FfTqq69e/buvv/5aTz31lM6fP2/9Xe3ata1P5r788sv/wfr111/1s7HRs/ln//79rc/pzE/YrgRMZmjVqFEj65k/B0zlypWzNv1+6623ro45evRoK/BKSkq6GjDNnz/f+qzPvJYvX269yWS+bWW+ieVNl/nGlfmGl/mWVr92bfXvbKHeVF66azkQFKzwabOs4NH8rNF8s40LAQQQQAABBK4vQMB0fSPuQAABBBBAAAGHCZgBk/n52UsvvXS18qxZs2rQoEHq16/f1b+bMGGC9SaSue+S+WZS48aNrf2PzE/Urlzm/krDhg2z9mMyw54vvvhCX331lbXvUmoCprx58+r555+X+UnZlWvGjBlWAHbixAllz57d+kTuj6fOrV69WrVq1bL+PXfu3F6l/8EHH1ifBha7+WbFNK6vbMlJXlVfeovpuP+ophr7YJmfTZqfT3IhgAACCCCAQOoECJhS58RdCCCAAAIIIOAgATNg6tixo1588cWrVZv7LplvGX3yySdX/858E8n8771791p/Z54iZ54YdiVgMj99M98qMgOfK6fCZcuWTR999NH/BEzmf5tvQpnXn99gql69usxP78y3pa5c5pwDBw7U0aNHr77B5ISAadeuXdb+VWYgN6dvH7WMv+igX8X1S50RHKb2w0dZoZ+5V9aVzyuv/yR3IIAAAggggAABE78BBBBAAAEEEHCdwLXeYHr77bc1YMAAa7+lBg0aWJ+hmafImRtVP/HEE5ZB7969rdPioqKirM25zX2czFDKfNOpS5cu1qbb5qdtQ4cOvXrKm7lZuPkJ3H/+8x+ZJ6uZodEf92Ay3/gx35yaPHmytU/TypUrZe7L1KNHD+tNoCubfHt7wGTut2R6maFb9zua6dsC3vVmVXp/xKf9AxSxYKn2GxutmwHg448/nt4heR4BBBBAAAGfEiBg8ql2s1gEEEAAAQR8Q+BaAZO5cjNIMt8kMsMSPz8/PfPMMzKDpyvXd999Z50YZ1733XefvvnmG+tTu2nTpqlgwYLWZ2vHjh1Tr169rgZMVz6hM5+ZM2eOwsPDVbx48aubfJt/b85jflpn7rlkzmvWYb49ZV5OCZjMjc/NE9XyGhtex7ZpqQJJ3rkB+Y3+wh8+fUFDZ822emxuvu7v73+jQ/EcAggggAACPilAwOSTbWfRCCCAAAII+LbAQeMtlcKFC18T4cyZMzpy5Ij1FtKVy9wE3AwczH2arnVdunRJ5nPmqWPmZW4QnTNnzr/c+k/zenNHTA8zODt+/LhG9eml3klx3lxummuLCglT5IgxCgwM1Pr162VuzM6FAAIIIIAAAmkTIGBKmxd3I4AAAggggAACPidgbnBunqjWzDhlb36Joq5a/yXjjbLKP63Tz7/8Yp0w+Oabb7pqfSwGAQQQQACBzBIgYMosaeZBAAEEEEAAAQQcKGB+9meeqGaewre5y926Ld5dby+9FpesgZOnqEyZMtq4caNCQ0Md2CVKRgABBBBAwH4BAib7e0AFCCCAAAIIIICAVwqcO3fO+lxs9+7d+qB7Vz3jn+yVdd5oUTHGqXFVx45XQkKCli1bpvr169/oUDyHAAIIIICAzwsQMPn8TwAABBBAAAEEEEDg2gL9+vWzTlSraoRMKyuGK8jPPVJJxlLqxezQqk2b9K9//UtffvmlexbHShBAAAEEELBBgIDJBnSmRAABBBBAAAEEvF1g9erVqlOnjrW5+Zo+3VU57pK3l5ym+j5VoJ4YO05FihTR1q1br7kpe5oG5GYEEEAAAQR8XICAycd/ACwfAQQQQAABBBD4s4D5yVjVqlW1ZcsWvdDhbr0TFugqpD1BIYqYPF3mJ4DTp09Xu3btXLU+FoMAAggggIAdAgRMdqgzJwIIIIAAAggg4MUCb731lnWiWslbiyu6Xi1lSXHX3kt3/nZA369YobvvvltTp0714k5QGgIIIIAAAs4RIGByTq+oFAEEEEAAAQQQyHCB7du3q2LFioqPj9fCvr3VOO5ihs+ZmRNMCAxVt5GjlStXLsXGxqpw4cKZOT1zIYAAAggg4FoBAibXtpaFIYAAAggggAACaRNISUlRZGSkli9frntbttDwvDnSNoCX3308MFDh3y/QkaNH9dVXX+nBBx/08oopDwEEEEAAAecIEDA5p1dUigACCCCAAAIIZKiAGbqYJ6oVLFBAsS2bKk9SYobOl9mD9z1+RiPmzlODBg20dOlS+fm56Fi8zMZkPgQQQAABBP4kQMDETwIBBBBAAAEEEEBABw4cUHh4uE6fPq0J9/ZWlwR3nRq3KCRMzYaPVkhIiDZt2qTSpUvTdQQQQAABBBDwoAABkwcxGQoBBBBAAAEEEHCqQIcOHTRt2jTdWb++ZhVz175EF/z8VSFqpX75bbfMDcxffvllp7aJuhFAAAEEEPBaAQImr20NhSGAAAIIIIAAApkjMH36dOtEtezZs2trx7tUNCE+cybOpFleuJCg96ZNV/ny5bV+/XoFBQVl0sxMgwACCCCAgO8IEDD5Tq9ZKQIIIIAAAggg8BcB85M489M48xO5T3t212Ny175LG4xP42qO+lbJyclauXKlatSowa8AAQQQQAABBDJAgIApA1AZEgEEEEAAAQQQcIqAuam3ubl37cqVFRVxuwKcUngq6kxIkWpFx2pDTIz69eunf//736l4ilsQQAABBBBA4EYECJhuRI1nEEAAAQQQQAABFwgsX75ckZGR1idjG3p2VUS8uzb2/iDZX8+Nm6BixYopxgiZsmXL5oKusQQEEEAAAQS8U4CAyTv7QlUIIIAAAggggECGCly6dEmVKlXS9u3b9Vrnjnoj2D9D58vswX8JDlGFCVN14cIFzZkzRy1btszsEpgPAQQQQAABnxIgYPKpdrNYBBBAAAEEEEDgssCrr75qnahWtmRJbahdVaEpxvdkLrlSjLU037VPC4w9l7p3765vv/3WJStjGQgggAACCHivAAGT9/aGyhBAAAEEEEAAgQwR2LJli6pWraqkpCQtu7eX6sVdzJB57Bp0VECw7hk1Vnnz5tW2bduUP39+u0phXgQQQAABBHxGgIDJZ1rNQhFAAAEEEEAAAVmhUr169bRq1So93OZOfZEzi6tYjgQEqeysuTpx4oRGjRql3r17u2p9LAYBBBBAAAFvFSBg8tbOUBcCCCCAAAIIIJABAp988ol1olqRwoW1tVmkciYnZcAs9g3Z/dAJjV+4UM2aNdMPP/wgPz8/+4phZgQQQAABBHxIgIDJh5rNUhFAAAEEEEDAtwX27NmjiIgInTt3TjP69tZdLjs1bk5wmFoPH6UsWbLI/Azwtttu8+2Gs3oEEEAAAQQyUYCAKROxmQoBBBBAAAEEELBToHXr1taJah2bNNbkwvnsLMXjc5/191e5RVHas3+/PvjgAz3zzDMen4MBEUAAAQQQQODvBQiY+HUggAACCCCAAAI+IDB+/HjrRLVcuXIptt2dKpwY76pV9zt3SZ/M+M7avNzcXyowMNBV62MxCCCAAAIIeLsAAZO3d4j6EEAAAQQQQACBdAocP35c4eHhOnLkiIb16an7k9wVLq0OyaK6I8dY+y2tWbNGlStXTqcYjyOAAAIIIIBAWgUImNIqxv0IIIAAAggggIDDBO655x7rRLXI6tW1qFRx+bto4+t4Yy3V1kZry88/64UXXtA777zjsO5QLgIIIIAAAu4QIGByRx9ZBQIIIIAAAgggcE2Bhb+fqBYWFqZN3TqplMs29n4rIUWvTpyskiVLavPmzTLXyYUAAggggAACmS9AwJT55syIAAIIIIAAAghkisCFCxdUvnx57dq1S4O6ddGLASmZMm9mTfJzcIgqj5usuLg4mUFa48aNM2tq5kEAAQQQQACBPwkQMPGTQAABBBBAAAEEXCrw3HPPWSeqVShTRmurV1RwinsCpmRjLY2279Lydet17733avjw4S7tIstCAAEEEEDAGQIETM7oE1UigAACCCCAAAJpEtiwYYNq1qypFCOI+emenqoRdzFNz3v7zV/7B+uh0WNVsGBBxcbGKk+ePN5eMvUhgAACCCDgagECJle3l8UhgAACCCCAgC8KJCYmWuGSGTI91f4ufZQ1xFUMB4KCFT5tlk6fPq0JEyaoS5curlofi0EAAQQQQMCJAgRMTuwaNSOAAAIIIIAAAv8g8P777+v5559XsZtvVkzj+sqWnOQqrw77j2jakqW68847NWvWLFetjcUggAACCCDgVAECJqd2jroRQAABBBBAAIFrCPzyyy+qUKGCzA2+5/btoxbx7vo0bkZwmNoPH6Xs2bNr69atKlq0KL8DBBBAAAEEEPACAQImL2gCJSCAAAIIIIAAAp4QMPdbatasmRYtWqQedzTT2AK5PTGs14xxKiBAET8s0YFDh/Tpp5/qscce85raKAQBBBBAAAFfFyBg8vVfAOtHAAEEEEAAAdcIjBw50jpRLa+x4fW2ti2U39iLyU3Xv06f11ezvlft2rW1YsUK+fv7u2l5rAUBBBBAAAFHCxAwObp9FI8AAggggAACCFwWOHLkiMqWLasTJ05odJ9e6pUU5yqa5SFhihw+WkFBQdbm5REREa5aH4tBAAEEEEDA6QIETE7vIPUjgAACCCCAAAKGQLdu3awT1ZrXqa15t7lrX6JLfn6q9NM6bTf2l3rttdf0xhtv0HMEEEAAAQQQ8DIBAiYvawjlIIAAAggggAACaRX4/vvvrRPVsmbNqi1d2uvW+Pi0DuHV978al6y3Jk+x3tDauHGjQkJCvLpeikMAAQQQQMAXBQiYfLHrrBkBBBBAAAEEXCNw9uxZlStXTnv27NGH3bvpaf8k16zNXMiW4FBVGztBicZ+UsuWLVO9evVctT4WgwACCCCAgFsECJjc0knWgQACCCCAAAI+KfDEE09YJ6pVK19eKyuUVaCfexjMqKxuzHat3hSthx9+WF988YV7FsdKEEAAAQQQcJkAAZPLGspyEEAAAQQQQMB3BFatWqW6desqICBAa3p3V6W4i65a/CcKVL+x41SkSBHFxsYqR44crlofi0EAAQQQQMBNAgRMbuoma0EAAQQQQAABnxGIN/ZZqlq1qmJiYtS/490aHBroqrXvDgxWuSkzdO7cOc2YMUN33XWXq9bHYhBAAAEEEHCbAAGT2zrKehBAAAEEEEDAJwQGDhxonahW8tbiiq5XU1lSUly17ta/HdCcFSvUsWNHTZ482VVrYzEIIIAAAgi4UYCAyY1dZU0IIIAAAggg4GqBn3/+WZUqVZL5FtPCvr3V2GWfxo0PDFX3kaOVK1cu69O4woULu7qfLA4BBBBAAAE3CBAwuaGLrAEBBBBAAAEEfEYgOTlZkZGRioqK0n2tWuqbPNldtfbjgYEK/36Bjhw9qmHDhun+++931fpYDAIIIIAAAm4VIGBya2dZFwIIIIAAAgi4UmDo0KHWiWoFCxRQbMumypOU6Kp13nPstEbN+8EK0RYvXiw/Pxcdi+eqTrEYBBBAAAEE/leAgIlfBAIIIIAAAggg4BCB/fv3KyIiQqdPn9ake3urU8Ilh1SeujIXhoTpjuGjFRISoujoaJUqVSp1D3IXAggggAACCNguQMBkewsoAAEEEEAAAQQQSJ1A+/btrRPV2jZsoJlFC6XuIYfcdd7fXxWW/aRdu/fo7bff1ksvveSQyikTAQQQQAABBEwBAiZ+BwgggAACCCCAgAMEpk2bpg4dOih79uza2vEuFU2Id0DVqS/xufMJ+mD6dFWoUEHr1q1TUFBQ6h/mTgQQQAABBBCwXYCAyfYWUAACCCCAAAIIIPDPAqdOnVJ4eLgOHjyoz3p116Mp7tp3aYPxaVzNUd8qJSVFP/30k2rUqMFPAgEEEEAAAQQcJkDA5LCGUS4CCCCAAAII+J7AQw89pK+//lp1K1fWsojbFeAigoQUqeamrdq4dauefPJJffzxxy5aHUtBAAEEEEDAdwQImHyn16wUAQQQQAABBBwosGzZMjVq1EjBwcHa0KOLwuPdtbH3e0l+emH8RBUvXlwxMTHKmjWrA7tEyQgggAACCCBAwMRvAAEEEEAAAQQQ8FKBS5cuqVKlStq+fbsGdO6o14P9vbTSGyvrl+AQVZgwVRcuXNDcuXPVokWLGxuIpxBAAAEEEEDAdgECJttbQAEIIIAAAggggMC1BV5++WUNGjRI4bffrg01qyhExvdkLrnM/Zaa/bJHi1atVo8ePTR27FiXrIxlIIAAAggg4JsCBEy+2XdWjQACCCCAAAJeLrBlyxZVrVpVSUlJWn5vb9WNu+DlFaetvJEBIbp31Bjly5dPsbGxyp8/f9oG4G4EEEAAAQQQ8CoBAiavagfFIIAAAggggAACskKlOnXqaM2aNXqkTRt9njPMVSyHAwMV/t08nThxQqNHj1avXr1ctT4WgwACCCCAgC8KEDD5YtdZMwIIIIAAAgh4tcCQIUOsE9VuvukmbW3aUDmSk7y63rQW1+3QCU1YuFB33HGHfvjhh7Q+zv0IIIAAAggg4IUCBExe2BRKQgABBBBAAAHfFdi9e7fKlSunc+fOaWbfPmobf9FVGN8Hh+nO4aOs0+LMzwBvvfVWV62PxSCAAAIIIOCrAgRMvtp51o0AAggggAACXinQqlUr60S1Tk0aa1LhfF5Z440WddbfXxELl2vvgQP68MMP9fTTT9/oUDyHAAIIIIAAAl4mQMDkZQ2hHAQQQAABBBDwXYFx48ZZJ6rlypVL29q1VqHEBFdhPHH2kj6d+Z2qVaumVatWKSAgwFXrYzEIIIAAAgj4sgABky93n7UjgAACCCCAgNcIHD9+XGXLltXRo0f1Te+eui853mtq80QhK41P4+qNHCN/4y2mtWvXqlKlSp4YljEQQAABBBBAwEsECJi8pBGUgQACCCCAAAK+LdCnTx/rRLXI6tW1qFRx+fv5uQYkzlhJtbXRitm+Xf3799fgwYNdszYWggACCCCAAAKXBQiY+CUggAACCCCAAAI2C8yfP1/NmzdXWFiYort10u3xl2yuyLPTDzS+9Htt4iTdfvvtio6OttbJhQACCCCAAALuEiBgclc/WQ0CCCCAAAIIOEzgwoULKl++vHbt2qXBXbuof2CKw1bwz+X+HByiSt9OUnx8vBYtWqRGjRq5an0sBgEEEEAAAQQuCxAw8UtAAAEEEEAAAQRsFHj22WetE9UqGvsvra1aXkE21uLpqZNTUhT58y5FrV+v++67T998842np2A8BBBAAAEEEPASAQImL2kEZSCAAAIIIICA7wmsN4KXmjVrWgtf2aenqsdfdBXCUL8gPTzmWxUqVEixsbHKnTu3q9bHYhBAAAEEEEDg/wUImPg1IIAAAggggAACNggkJiaqRo0a2rhxo55u304fZg22oYqMm3J/YLDCp32nM2fOaNKkSerUqVPGTcbICCCAAAIIIGC7AAGT7S2gAAQQQAABBBDwRYF3333XOlGteNGi2tKonrIlJ7mKof3ew5qxbJnatGmj7777zlVrYzEIIIAAAggg8FcBAiZ+FQgggAACCCCAQCYL7Ny5UxUqVNDFixc1774+ah7nrk/jpgWFqcOIUcqRI4e2bt2qm2++OZOFmQ4BBBBAAAEEMluAgCmzxZkPAQQQQAABBHxaIMXY+Lpp06ZavHixet7RTGMKXN6XKDE5WSuPHteSw0e0/sRJ/ffMWR24eElnExKsf88eFKSbwkJ1e47sqpontxoVLKDa+fMq0N/fqzxPBQQofN5iHTx8WJ9//rkeeeQRr6qPYhBAAAEEEEAgYwQImDLGlVERQAABBBBAAIFrCowYMUJ9+/ZVvrx5FdumuU4cP6HPd+zU+N/26FhcfJrU8oUEq1vxW/RoqZIqnTNHmp7NqJsfOnlOX38/R3Xq1FFUVJT8vSwAy6h1My4CCCCAAAK+LkDA5Ou/ANaPAAIIIIAAApkmcNh4qyc8PFwnTpzQxx3aa41xitxEI1hKvlJBwbJSeHPp1tpSoXApl/FpWejvwdGlM9KpfdKhWOnXlVLsD9LhbdaT5jtMnYsV1eDKFVQ8W9ZMW8+fJ1oWHKZGI0YryHjbyty83FwrFwIIIIAAAgj4hgABk2/0mVUigAACCCCAgBcIdO3aVRMnTlTpYsW0d98+XUgyNvYODJVq9pHqPyzdXDFtVe6LllYMlVaNNL6xu6QsxudpAyuW05NlS8nfzy9tY6Xz7ovGfJV+XKsdu3ZpwIABev3119M5Io8jgAACCCCAgJMECJic1C1qRQABBBBAAAHHCsyePds6US3ACIGSzGDJvKp1l+56R8pdNH3rOrlXmvmitO5ba5xWNxXSuHq1lDM4OH3jpuHpVy4l6+0pU6y3ljZs2KCQkJA0PM2tCCCAAAIIIOB0AQImp3eQ+hFAAAEEEEDA6wXOnj2rMmXK6MCBA5drzZpX6jlCKt/Gs7XHfC+NvVc6d1QVcuXU/CYNVdDYGDyjr80hYao2epwVnC1fvlx169bN6CkZHwEEEEAAAQS8TICAycsaQjkIIIAAAggg4D6BBx98UMOGDbu8MHOfpYeNICjfrRmz0OO/SV+0svZnijA2/l5+RyPlycC3iRKNU/HqxmzXmujN1olx5slxXAgggAACCCDgewIETL7Xc1aMAAIIIIAAApkosGLFCjVo0EApRhCjQhFSvyVS9vwZW8G5Y9KQRtLBGEUWzK8FxptMgRl0mtsQBerJseN08803a+vWrcqRwztOs8tYYEZHAAEEEEAAgT8LEDDxm0AAAQQQQAABBDJQoEqVKtaJaspRWHpudfr3W0ptraf2S+/XkE4f0CvlympgpfKpfTLV9+0ODFbE5Ok6f/68Zs6cqbZt26b6WW5EAAEEEEAAAXcJEDC5q5+sBgEEEEAAAQS8SGDz5s2qWrWqEpOSpccXSaUiM7e6ncuNN5kaK0DJWteyqSrlye3R+Vv9tl9zV/yoTp06adKkSR4dm8EQQAABBBBAwFkCBEzO6hfVIoAAAggggICDBJo1a6aFCxdKDR6TOn9qT+VTnpSWDlEj41O5xc2Mz+Y8dI0LDFWPkaOVO3duxcbGqlChQh4amWEQQAABBBBAwIkCBExO7Bo1I4AAAggggIDXC5h7L9WvX18KM94aemOXlCWXPTVfPC0NuE26cELLjICpgRE0pfc6Fhik8Nk/6OixY/rmm2903333pXdInkcAAQQQQAABhwsQMDm8gZSPAAIIIIAAAt4p0KVLl8ufjbV4VbrzTXuLnPOGNOd1dShaRFMa1k13LX2OndboeT+oUaNGWrRokfz8/NI9JgMggAACCCCAgLMFCJic3T+qRwABBBBAAAEvFDhz5owKFCiguPgEaeAeKVcRe6s8fVB6paiC/VJ0pGNb5QwOvuF6FoSE6Y7/jFJYWJiio6N1++233/BYPIgAAggggAAC7hEgYHJPL1kJAggggAACCHiJwNSpU9WxY0epRAPpqWXeUZWx2bf+u0QT69VS5+K33FBN5/39VX7pj/p1z14NHjxY/fv3v6FxeAgBBBBAAAEE3CdAwOS+nrIiBBBAAAEEELBZoF+/fvrkk0+MT+PeMj6Re9nman6f/ofB0qyX9GipkvqsRpUbqunZ8/H6cPoMVaxYUWvXrlVQUNANjcNDCCCAAAIIIOA+AQIm9/WUFSGAAAIIIICAzQINGzbU8uXLpUfnS2Wb2VzN79NvXyR92lT18udTVHPjbaY0XuuNT+NqjhxrPbVy5UpVr149jSNwOwIIIIAAAgi4WYCAyc3dZW0IIIAAAgggYItA0aJFtW/fPunN36Q8xWyp4S+TnjD2gnqtmIoYeyft69AmTTUZO0mpxoYYbYqN1dNPP60PP/wwTc9zMwIIIIAAAgi4X4CAyf09ZoUIIIAAAgggkMkCoaGhiouLkz6+KAWFZvLsfzNdwiVjP6gwBRv7KMV1N/aHSsP1bpKf+o+fqOLFiysmJkZZs2ZNw9PcigACCCCAAAK+IEDA5AtdZo0IIIAAAgggkKkCfn5+l+f7LCVT573uZI9driulZ+fr3nrlhp1BIao4caouXLigefPmqXnz5ql+lhsRQAABBBBAwHcECJh8p9esFAEEEEAAAQQyScAtbzAlp6So2c7dWrx6jXr16qXRo0dnkiDTIIAAAggggIDTBAiYnNYx6kUAAQQQQAABrxfw5j2YbgoL1f4ObVNlOCIgWH1HjVW+fPm0bds2608uBBBAAAEEEEDgWgIETPwuEEAAAQQQQAABDws0aNBAUVFR0mMLpDJNPTz6DQ73+ylydfPn1YrmTa47yKHAIIXPnKOTJ09qzJgx6tmz53Wf4QYEEEAAAQQQ8F0BAibf7T0rRwABBBBAAIEMEnj88cf12WefPS7n3QAAFtxJREFUSW3elpq/lEGzpHHY+e9I372oR0qV0Oc1ql734a6HTmjiwoVq0aKF5s6de937uQEBBBBAAAEEfFuAgMm3+8/qEUAAAQQQQCADBKZMmaJOnTpJt0dK/ZZkwAw3MOQnxltLOxZrQr1a6lL8ln8cYHZwmNoMH2WdFmeeGmeeHseFAAIIIIAAAgj8kwABE78PBBBAAAEEEEDAwwKnT59WwYIFFRefKA3cI+W6ycMzpHG4M4ekV4oqWMk63LGtcgUH/+0AZ/wDVG7hMu09cEAfffSRnnrqqTROxu0IIIAAAggg4IsCBEy+2HXWjAACCCCAAAIZLtC5c2dNnjxZajlAav16hs/3jxPMeVOaM0B3Fy2iqQ3r/uOtj5+5qM++m6Xq1atr5cqVCggIsLd2ZkcAAQQQQAABRwgQMDmiTRSJAAIIIIAAAk4TWL58uRo2bChlySO9sUsKy2nPEi6ekV4vIZ0/piVNIxVZqMDf1rEyJIvqjRhthUpr165VxYoV7amZWRFAAAEEEEDAcQIETI5rGQUjgAACCCCAgFMEGjdurCVLjD2YIvtJHf9tT9lTn5aWfKzQ0FDN69FFDeMuXrOOOPmp6pqN2rpjh1588UUNGjTInnqZFQEEEEAAAQQcKUDA5Mi2UTQCCCCAAAIIOEEgOjpa1apVU2JSirHZ92KpZIPMLfuXFdK/I6WUJGtePz8/3d+qpd7Ll0u5koz9of5wvZmQogETJ6tUqVLatGmTwsLCMrdWZkMAAQQQQAABRwsQMDm6fRSPAAIIIIAAAt4u8Oqrr+qtt96SchobfT+3NvM2/D59UHqvunR6v55//nllyZLFeispPj5ehY0NyD9t3UId4i+/zbQtJFSVx060/m3x4sWKjDRCKS4EEEAAAQQQQCANAgRMacDiVgQQQAABBBBAIK0CiYmJatasmZYuXSrdVF56wvhkLlvetA6TtvvPHZc+aSwd2KwGDRpo4cKFCgoKUmxsrB544AH99NNP1njtjD2iPrmtqLpFx+rHDRt0//33a9iwYWmbi7sRQAABBBBAAAFDgICJnwECCCCAAAIIIJDBAsePH7eCHjPgUeFy0sOzpTzFMmbWE3ukL1tLB2NUtmxZmZuN58uX7+pcycnJGjp0qLXP0pkzZxQSEqK4uDgVKlTIqi937twZUxejIoAAAggggICrBQiYXN1eFocAAggggAAC3iJw6NAh602mmJgY4w2m/FKvUVJES8+WFztPGt1HOndEERERmj9/vm66yfg07xrXvn379Oijj+q7776z/nXy5Mnq2LGjZ+thNAQQQAABBBDwGQECJp9pNQtFAAEEEEAAAbsFTp06pe7du2vu3LlGKX5SjV5S28Hp35fp1AFp1kvS6tHGuClq3ry5xo8fn6q3kaZOnapFixbpiy++sJuH+RFAAAEEEEDAwQIETA5uHqUjgAACCCCAgPMEzE/UPvzwQw0YMEAXLxqbbAcZp7XV7ivV+5exR5Px+VxaroNbpaih0srhUsIFhYaG6vXXX9dzzz0nf3//tIzEvQgggAACCCCAQLoECJjSxcfDCCCAAAIIIIDAjQns2rVL/fv315QpU5SSknJ5EHN/pvAWUvFaUqGyl0+eC81x+d8unTFOhDPeVDq0TfptlWR+Dmfss2Refn5+6tChgwYPHqySJUveWEE8hQACCCCAAAIIpEOAgCkdeDyKAAIIIIAAAgikV8DcWPuzzz7ThAkTdPLkyTQNZ27I3bVrV2svJXPPJS4EEEAAAQQQQMAuAQImu+SZFwEEEEAAAQQQ+INAQkKCoqKitHTpUm3YsEE7d+7UwYMHdfbsWeuu7Nmzq3DhwtYbSlWqVFFkZKTq16+voKAgHBFAAAEEEEAAAdsFCJhsbwEFIIAAAggggAACCCCAAAIIIIAAAs4WIGBydv+oHgEEEEAAAQQQQAABBBBAAAEEELBdgIDJ9hZQAAIIIIAAAggggAACCCCAAAIIIOBsAQImZ/eP6hFAAAEEEEAAAQQQQAABBBBAAAHbBQiYbG8BBSCAAAIIIIAAAggggAACCCCAAALOFiBgcnb/qB4BBBBAAAEEEEAAAQQQQAABBBCwXYCAyfYWUAACCCCAAAIIIIAAAggggAACCCDgbAECJmf3j+oRQAABBBBAAAEEEEAAAQQQQAAB2wUImGxvAQUggAACCCCAAAIIIIAAAggggAACzhYgYHJ2/6geAQQQQAABBBBAAAEEEEAAAQQQsF2AgMn2FlAAAggggAACCCCAAAIIIIAAAggg4GwBAiZn94/qEUAAAQQQQAABBBBAAAEEEEAAAdsFCJhsbwEFIIAAAggggAACCCCAAAIIIIAAAs4WIGBydv+oHgEEEEAAAQQQQAABBBBAAAEEELBdgIDJ9hZQAAIIIIAAAggggAACCCCAAAIIIOBsAQImZ/eP6hFAAAEEEEAAAQQQQAABBBBAAAHbBQiYbG8BBSCAAAIIIIAAAggggAACCCCAAALOFiBgcnb/qB4BBBBAAAEEEEAAAQQQQAABBBCwXYCAyfYWUAACCCCAAAIIIIAAAggggAACCCDgbAECJmf3j+oRQAABBBBAAAEEEEAAAQQQQAAB2wUImGxvAQUggAACCCCAAAIIIIAAAggggAACzhYgYHJ2/6geAQQQQAABBBBAAAEEEEAAAQQQsF2AgMn2FlAAAggggAACCCCAAAIIIIAAAggg4GwBAiZn94/qEUAAAQQQQAABBBBAAAEEEEAAAdsFCJhsbwEFIIAAAggggAACCCCAAAIIIIAAAs4WIGBydv+oHgEEEEAAAQQQQAABBBBAAAEEELBdgIDJ9hZQAAIIIIAAAggggAACCCCAAAIIIOBsAQImZ/eP6hFAAAEEEEAAAQQQQAABBBBAAAHbBQiYbG8BBSCAAAIIIIAAAggggAACCCCAAALOFiBgcnb/qB4BBBBAAAEEEEAAAQQQQAABBBCwXYCAyfYWUAACCCCAAAIIIIAAAggggAACCCDgbAECJmf3j+oRQAABBBBAAAEEEEAAAQQQQAAB2wUImGxvAQUggAACCCCAAAIIIIAAAggggAACzhYgYHJ2/6geAQQQQAABBBBAAAEEEEAAAQQQsF2AgMn2FlAAAggggAACCCCAAAIIIIAAAggg4GwBAiZn94/qEUAAAQQQQAABBBBAAAEEEEAAAdsFCJhsbwEFIIAAAggggAACCCCAAAIIIIAAAs4WIGBydv+oHgEEEEAAAQQQQAABBBBAAAEEELBdgIDJ9hZQAAIIIIAAAggggAACCCCAAAIIIOBsAQImZ/eP6hFAAAEEEEAAAQQQQAABBBBAAAHbBQiYbG8BBSCAAAIIIIAAAggggAACCCCAAALOFiBgcnb/qB4BBBBAAAEEEEAAAQQQQAABBBCwXYCAyfYWUAACCCCAAAIIIIAAAggggAACCCDgbAECJmf3j+oRQAABBBBAAAEEEEAAAQQQQAAB2wUImGxvAQUggAACCCCAAAIIIIAAAggggAACzhYgYHJ2/6geAQQQQAABBBBAAAEEEEAAAQQQsF2AgMn2FlAAAggggAACCCCAAAIIIIAAAggg4GwBAiZn94/qEUAAAQQQQAABBBBAAAEEEEAAAdsFCJhsbwEFIIAAAggggAACCCCAAAIIIIAAAs4WIGBydv+oHgEEEEAAAQQQQAABBBBAAAEEELBdgIDJ9hZQAAIIIIAAAggggAACCCCAAAIIIOBsAQImZ/eP6hFAAAEEEEAAAQQQQAABBBBAAAHbBQiYbG8BBSCAAAIIIIAAAggggAACCCCAAALOFiBgcnb/qB4BBBBAAAEEEEAAAQQQQAABBBCwXYCAyfYWUAACCCCAAAIIIIAAAggggAACCCDgbAECJmf3j+oRQAABBBBAAAEEEEAAAQQQQAAB2wUImGxvAQUggAACCCCAAAIIIIAAAggggAACzhYgYHJ2/6geAQQQQAABBBBAAAEEEEAAAQQQsF2AgMn2FlAAAggggAACCCCAAAIIIIAAAggg4GwBAiZn94/qEUAAAQQQQAABBBBAAAEEEEAAAdsFCJhsbwEFIIAAAggggAACCCCAAAIIIIAAAs4WIGBydv+oHgEEEEAAAQQQQAABBBBAAAEEELBdgIDJ9hZQAAIIIIAAAggggAACCCCAAAIIIOBsAQImZ/eP6hFAAAEEEEAAAQQQQAABBBBAAAHbBQiYbG8BBSCAAAIIIIAAAggggAACCCCAAALOFiBgcnb/qB4BBBBAAAEEEEAAAQQQQAABBBCwXYCAyfYWUAACCCCAAAIIIIAAAggggAACCCDgbAECJmf3j+oRQAABBBBAAAEEEEAAAQQQQAAB2wUImGxvAQUggAACCCCAAAIIIIAAAggggAACzhYgYHJ2/6geAQQQQAABBBBAAAEEEEAAAQQQsF2AgMn2FlAAAggggAACCCCAAAIIIIAAAggg4GwBAiZn94/qEUAAAQQQQAABBBBAAAEEEEAAAdsFCJhsbwEFIIAAAggggAACCCCAAAIIIIAAAs4WIGBydv+oHgEEEEAAAQQQQAABBBBAAAEEELBdgIDJ9hZQAAIIIIAAAggggAACCCCAAAIIIOBsAQImZ/eP6hFAAAEEEEAAAQQQQAABBBBAAAHbBQiYbG8BBSCAAAIIIIAAAggggAACCCCAAALOFiBgcnb/qB4BBBBAAAEEEEAAAQQQQAABBBCwXYCAyfYWUAACCCCAAAIIIIAAAggggAACCCDgbAECJmf3j+oRQAABBBBAAAEEEEAAAQQQQAAB2wUImGxvAQUggAACCCCAAAIIIIAAAggggAACzhYgYHJ2/6geAQQQQAABBBBAAAEEEEAAAQQQsF2AgMn2FlAAAggggAACCCCAAAIIIIAAAggg4GwBAiZn94/qEUAAAQQQQAABBBBAAAEEEEAAAdsFCJhsbwEFIIAAAggggAACCCCAAAIIIIAAAs4WIGBydv+oHgEEEEAAAQQQQAABBBBAAAEEELBdgIDJ9hZQAAIIIIAAAggggAACCCCAAAIIIOBsAQImZ/eP6hFAAAEEEEAAAQQQQAABBBBAAAHbBQiYbG8BBSCAAAIIIIAAAggggAACCCCAAALOFiBgcnb/qB4BBBBAAAEEEEAAAQQQQAABBBCwXYCAyfYWUAACCCCAAAIIIIAAAggggAACCCDgbAECJmf3j+oRQAABBBBAAAEEEEAAAQQQQAAB2wUImGxvAQUggAACCCCAAAIIIIAAAggggAACzhYgYHJ2/6geAQQQQAABBBBAAAEEEEAAAQQQsF2AgMn2FlAAAggggAACCCCAAAIIIIAAAggg4GwBAiZn94/qEUAAAQQQQAABBBBAAAEEEEAAAdsFCJhsbwEFIIAAAggggAACCCCAAAIIIIAAAs4WIGBydv+oHgEEEEAAAQQQQAABBBBAAAEEELBdgIDJ9hZQAAIIIIAAAggggAACCCCAAAIIIOBsAQImZ/eP6hFAAAEEEEAAAQQQQAABBBBAAAHbBQiYbG8BBSCAAAIIIIAAAggggAACCCCAAALOFiBgcnb/qB4BBBBAAAEEEEAAAQQQQAABBBCwXYCAyfYWUAACCCCAAAIIIIAAAggggAACCCDgbAECJmf3j+oRQAABBBBAAAEEEEAAAQQQQAAB2wUImGxvAQUggAACCCCAAAIIIIAAAggggAACzhYgYHJ2/6geAQQQQAABBBBAAAEEEEAAAQQQsF2AgMn2FlAAAggggAACCCCAAAIIIIAAAggg4GwBAiZn94/qEUAAAQQQQAABBBBAAAEEEEAAAdsFCJhsbwEFIIAAAggggAACCCCAAAIIIIAAAs4WIGBydv+oHgEEEEAAAQQQQAABBBBAAAEEELBdgIDJ9hZQAAIIIIAAAggggAACCCCAAAIIIOBsAQImZ/eP6hFAAAEEEEAAAQQQQAABBBBAAAHbBQiYbG8BBSCAAAIIIIAAAggggAACCCCAAALOFiBgcnb/qB4BBBBAAAEEEEAAAQQQQAABBBCwXYCAyfYWUAACCCCAAAIIIIAAAggggAACCCDgbAECJmf3j+oRQAABBBBAAAEEEEAAAQQQQAAB2wUImGxvAQUggAACCCCAAAIIIIAAAggggAACzhYgYHJ2/6geAQQQQAABBBBAAAEEEEAAAQQQsF2AgMn2FlAAAggggAACCCCAAAIIIIAAAggg4GwBAiZn94/qEUAAAQQQQAABBBBAAAEEEEAAAdsFCJhsbwEFIIAAAggggAACCCCAAAIIIIAAAs4WIGBydv+oHgEEEEAAAQQQQAABBBBAAAEEELBdgIDJ9hZQAAIIIIAAAggggAACCCCAAAIIIOBsAQImZ/eP6hFAAAEEEEAAAQQQQAABBBBAAAHbBQiYbG8BBSCAAAIIIIAAAggggAACCCCAAALOFiBgcnb/qB4BBBBAAAEEEEAAAQQQQAABBBCwXYCAyfYWUAACCCCAAAIIIIAAAggggAACCCDgbAECJmf3j+oRQAABBBBAAAEEEEAAAQQQQAAB2wUImGxvAQUggAACCCCAAAIIIIAAAggggAACzhYgYHJ2/6geAQQQQAABBBBAAAEEEEAAAQQQsF2AgMn2FlAAAggggAACCCCAAAIIIIAAAggg4GwBAiZn94/qEUAAAQQQQAABBBBAAAEEEEAAAdsFCJhsbwEFIIAAAggggAACCCCAAAIIIIAAAs4WIGBydv+oHgEEEEAAAQQQQAABBBBAAAEEELBdgIDJ9hZQAAIIIIAAAggggAACCCCAAAIIIOBsAQImZ/eP6hFAAAEEEEAAAQQQQAABBBBAAAHbBQiYbG8BBSCAAAIIIIAAAggggAACCCCAAALOFiBgcnb/qB4BBBBAAAEEEEAAAQQQQAABBBCwXYCAyfYWUAACCCCAAAIIIIAAAggggAACCCDgbAECJmf3j+oRQAABBBBAAAEEEEAAAQQQQAAB2wUImGxvAQUggAACCCCAAAIIIIAAAggggAACzhYgYHJ2/6geAQQQQAABBBBAAAEEEEAAAQQQsF2AgMn2FlAAAggggAACCCCAAAIIIIAAAggg4GwBAiZn94/qEUAAAQQQQAABBBBAAAEEEEAAAdsFCJhsbwEFIIAAAggggAACCCCAAAIIIIAAAs4WIGBydv+oHgEEEEAAAQQQQAABBBBAAAEEELBdgIDJ9hZQAAIIIIAAAggggAACCCCAAAIIIOBsAQImZ/eP6hFAAAEEEEAAAQQQQAABBBBAAAHbBQiYbG8BBSCAAAIIIIAAAggggAACCCCAAALOFiBgcnb/qB4BBBBAAAEEEEAAAQQQQAABBBCwXYCAyfYWUAACCCCAAAIIIIAAAggggAACCCDgbAECJmf3j+oRQAABBBBAAAEEEEAAAQQQQAAB2wUImGxvAQUggAACCCCAAAIIIIAAAggggAACzhYgYHJ2/6geAQQQQAABBBBAAAEEEEAAAQQQsF2AgMn2FlAAAggggAACCCCAAAIIIIAAAggg4GwBAiZn94/qEUAAAQQQQAABBBBAAAEEEEAAAdsFCJhsbwEFIIAAAggggAACCCCAAAIIIIAAAs4WIGBydv+oHgEEEEAAAQQQQAABBBBAAAEEELBdgIDJ9hZQAAIIIIAAAggggAACCCCAAAIIIOBsAQImZ/eP6hFAAAEEEEAAAQQQQAABBBBAAAHbBQiYbG8BBSCAAAIIIIAAAggggAACCCCAAALOFiBgcnb/qB4BBBBAAAEEEEAAAQQQQAABBBCwXYCAyfYWUAACCCCAAAIIIIAAAggggAACCCDgbIH/AzSq1t77VwCxAAAAAElFTkSuQmCC;" vertex="1" parent="1">
          <mxGeometry x="110" y="60" width="606" height="339.59" as="geometry" />
        </mxCell>
        <mxCell id="dr0Qi1gEtvZ0eQ3jCMXv-4" value="Complex Item" style="swimlane;fontStyle=0;childLayout=stackLayout;horizontal=1;startSize=30;horizontalStack=0;resizeParent=1;resizeParentMax=0;resizeLast=0;collapsible=1;marginBottom=0;whiteSpace=wrap;html=1;" vertex="1" parent="1">
          <mxGeometry x="100" y="600" width="140" height="60" as="geometry" />
        </mxCell>
        <mxCell id="dr0Qi1gEtvZ0eQ3jCMXv-5" value="root (node)" style="text;strokeColor=none;fillColor=none;align=left;verticalAlign=middle;spacingLeft=4;spacingRight=4;overflow=hidden;points=[[0,0.5],[1,0.5]];portConstraint=eastwest;rotatable=0;whiteSpace=wrap;html=1;" vertex="1" parent="dr0Qi1gEtvZ0eQ3jCMXv-4">
          <mxGeometry y="30" width="140" height="30" as="geometry" />
        </mxCell>
        <mxCell id="dr0Qi1gEtvZ0eQ3jCMXv-8" value="Node" style="swimlane;fontStyle=0;childLayout=stackLayout;horizontal=1;startSize=30;horizontalStack=0;resizeParent=1;resizeParentMax=0;resizeLast=0;collapsible=1;marginBottom=0;whiteSpace=wrap;html=1;" vertex="1" parent="1">
          <mxGeometry x="340" y="615" width="140" height="120" as="geometry" />
        </mxCell>
        <mxCell id="dr0Qi1gEtvZ0eQ3jCMXv-9" value="part Part" style="text;strokeColor=none;fillColor=none;align=left;verticalAlign=middle;spacingLeft=4;spacingRight=4;overflow=hidden;points=[[0,0.5],[1,0.5]];portConstraint=eastwest;rotatable=0;whiteSpace=wrap;html=1;" vertex="1" parent="dr0Qi1gEtvZ0eQ3jCMXv-8">
          <mxGeometry y="30" width="140" height="30" as="geometry" />
        </mxCell>
        <mxCell id="dr0Qi1gEtvZ0eQ3jCMXv-10" value="connections List&amp;lt;Node&amp;gt;" style="text;strokeColor=none;fillColor=none;align=left;verticalAlign=middle;spacingLeft=4;spacingRight=4;overflow=hidden;points=[[0,0.5],[1,0.5]];portConstraint=eastwest;rotatable=0;whiteSpace=wrap;html=1;" vertex="1" parent="dr0Qi1gEtvZ0eQ3jCMXv-8">
          <mxGeometry y="60" width="140" height="30" as="geometry" />
        </mxCell>
        <mxCell id="dr0Qi1gEtvZ0eQ3jCMXv-16" value="coords Vector2&amp;lt;Float&amp;gt;" style="text;strokeColor=none;fillColor=none;align=left;verticalAlign=middle;spacingLeft=4;spacingRight=4;overflow=hidden;points=[[0,0.5],[1,0.5]];portConstraint=eastwest;rotatable=0;whiteSpace=wrap;html=1;" vertex="1" parent="dr0Qi1gEtvZ0eQ3jCMXv-8">
          <mxGeometry y="90" width="140" height="30" as="geometry" />
        </mxCell>
        <mxCell id="dr0Qi1gEtvZ0eQ3jCMXv-18" value="" style="endArrow=classic;html=1;rounded=0;exitX=0;exitY=0.5;exitDx=0;exitDy=0;entryX=0.5;entryY=0;entryDx=0;entryDy=0;" edge="1" parent="dr0Qi1gEtvZ0eQ3jCMXv-8" source="dr0Qi1gEtvZ0eQ3jCMXv-10" target="dr0Qi1gEtvZ0eQ3jCMXv-8">
          <mxGeometry width="50" height="50" relative="1" as="geometry">
            <mxPoint x="10" y="-55" as="sourcePoint" />
            <mxPoint x="70" y="-55" as="targetPoint" />
            <Array as="points">
              <mxPoint x="-40" y="75" />
              <mxPoint x="-40" y="-55" />
              <mxPoint x="70" y="-55" />
            </Array>
          </mxGeometry>
        </mxCell>
        <mxCell id="dr0Qi1gEtvZ0eQ3jCMXv-21" style="edgeStyle=orthogonalEdgeStyle;rounded=0;orthogonalLoop=1;jettySize=auto;html=1;exitX=0;exitY=0.5;exitDx=0;exitDy=0;entryX=0.5;entryY=0;entryDx=0;entryDy=0;" edge="1" parent="1" source="dr0Qi1gEtvZ0eQ3jCMXv-12" target="dr0Qi1gEtvZ0eQ3jCMXv-8">
          <mxGeometry relative="1" as="geometry">
            <mxPoint x="410" y="560" as="targetPoint" />
            <Array as="points">
              <mxPoint x="580" y="560" />
              <mxPoint x="410" y="560" />
            </Array>
          </mxGeometry>
        </mxCell>
        <mxCell id="dr0Qi1gEtvZ0eQ3jCMXv-12" value="Part" style="swimlane;fontStyle=0;childLayout=stackLayout;horizontal=1;startSize=30;horizontalStack=0;resizeParent=1;resizeParentMax=0;resizeLast=0;collapsible=1;marginBottom=0;whiteSpace=wrap;html=1;" vertex="1" parent="1">
          <mxGeometry x="640" y="645" width="140" height="90" as="geometry" />
        </mxCell>
        <mxCell id="dr0Qi1gEtvZ0eQ3jCMXv-13" value="nodes List&amp;lt;Node&amp;gt;" style="text;strokeColor=none;fillColor=none;align=left;verticalAlign=middle;spacingLeft=4;spacingRight=4;overflow=hidden;points=[[0,0.5],[1,0.5]];portConstraint=eastwest;rotatable=0;whiteSpace=wrap;html=1;" vertex="1" parent="dr0Qi1gEtvZ0eQ3jCMXv-12">
          <mxGeometry y="30" width="140" height="30" as="geometry" />
        </mxCell>
        <mxCell id="dr0Qi1gEtvZ0eQ3jCMXv-14" value="rotation" style="text;strokeColor=none;fillColor=none;align=left;verticalAlign=middle;spacingLeft=4;spacingRight=4;overflow=hidden;points=[[0,0.5],[1,0.5]];portConstraint=eastwest;rotatable=0;whiteSpace=wrap;html=1;" vertex="1" parent="dr0Qi1gEtvZ0eQ3jCMXv-12">
          <mxGeometry y="60" width="140" height="30" as="geometry" />
        </mxCell>
        <mxCell id="dr0Qi1gEtvZ0eQ3jCMXv-19" value="" style="endArrow=classic;html=1;rounded=0;exitX=0.5;exitY=0;exitDx=0;exitDy=0;entryX=0.5;entryY=0;entryDx=0;entryDy=0;" edge="1" parent="1" source="dr0Qi1gEtvZ0eQ3jCMXv-4" target="dr0Qi1gEtvZ0eQ3jCMXv-8">
          <mxGeometry width="50" height="50" relative="1" as="geometry">
            <mxPoint x="400" y="610" as="sourcePoint" />
            <mxPoint x="450" y="560" as="targetPoint" />
            <Array as="points">
              <mxPoint x="170" y="480" />
              <mxPoint x="410" y="480" />
            </Array>
          </mxGeometry>
        </mxCell>
        <mxCell id="dr0Qi1gEtvZ0eQ3jCMXv-20" style="edgeStyle=orthogonalEdgeStyle;rounded=0;orthogonalLoop=1;jettySize=auto;html=1;exitX=1;exitY=0.5;exitDx=0;exitDy=0;entryX=0.5;entryY=0;entryDx=0;entryDy=0;" edge="1" parent="1" source="dr0Qi1gEtvZ0eQ3jCMXv-9" target="dr0Qi1gEtvZ0eQ3jCMXv-12">
          <mxGeometry relative="1" as="geometry">
            <mxPoint x="640" y="540" as="targetPoint" />
            <Array as="points">
              <mxPoint x="531" y="660" />
              <mxPoint x="531" y="530" />
              <mxPoint x="710" y="530" />
            </Array>
          </mxGeometry>
        </mxCell>
      </root>
    </mxGraphModel>
  </diagram>
</mxfile>
